<svg width="1440" height="1024" viewBox="0 0 1440 1024" fill="none" xmlns="http://www.w3.org/2000/svg">
<g clip-path="url(#clip0_274_1341)">
<mask id="mask0_274_1341" style="mask-type:luminance" maskUnits="userSpaceOnUse" x="-44" y="0" width="1485" height="578">
<path d="M1441 0H-44V578H1441V0Z" fill="white"/>
</mask>
<g mask="url(#mask0_274_1341)">
<path d="M55 24.7715L42.625 37.1572L55 24.7715Z" stroke="#1C538E"/>
<path d="M47.7812 92.893C47.7812 93.1667 47.8899 93.4293 48.0833 93.6228C48.2767 93.8164 48.539 93.9251 48.8125 93.9251C49.086 93.9251 49.3483 93.8164 49.5417 93.6228C49.7351 93.4293 49.8438 93.1667 49.8438 92.893C49.8438 92.6192 49.7351 92.3567 49.5417 92.1631C49.3483 91.9696 49.086 91.8608 48.8125 91.8608C48.539 91.8608 48.2767 91.9696 48.0833 92.1631C47.8899 92.3567 47.7812 92.6192 47.7812 92.893V92.893Z" stroke="#1C538E"/>
<path d="M45.7188 154.822C45.7188 155.643 46.0447 156.43 46.6249 157.011C47.2051 157.592 47.992 157.918 48.8125 157.918C49.633 157.918 50.4199 157.592 51.0001 157.011C51.5803 156.43 51.9062 155.643 51.9062 154.822C51.9062 154 51.5803 153.213 51.0001 152.632C50.4199 152.051 49.633 151.725 48.8125 151.725C47.992 151.725 47.2051 152.051 46.6249 152.632C46.0447 153.213 45.7188 154 45.7188 154.822V154.822Z" stroke="#1C538E"/>
<path d="M43.6562 216.75C43.6562 218.119 44.1995 219.431 45.1665 220.399C46.1335 221.367 47.445 221.911 48.8125 221.911C50.18 221.911 51.4915 221.367 52.4585 220.399C53.4255 219.431 53.9688 218.119 53.9688 216.75C53.9688 215.381 53.4255 214.069 52.4585 213.101C51.4915 212.133 50.18 211.589 48.8125 211.589C47.445 211.589 46.1335 212.133 45.1665 213.101C44.1995 214.069 43.6562 215.381 43.6562 216.75V216.75Z" stroke="#1C538E"/>
<path d="M43.6562 278.679C43.6562 280.047 44.1995 281.36 45.1665 282.328C46.1335 283.296 47.445 283.839 48.8125 283.839C50.18 283.839 51.4915 283.296 52.4585 282.328C53.4255 281.36 53.9688 280.047 53.9688 278.679C53.9688 277.31 53.4255 275.997 52.4585 275.029C51.4915 274.062 50.18 273.518 48.8125 273.518C47.445 273.518 46.1335 274.062 45.1665 275.029C44.1995 275.997 43.6562 277.31 43.6562 278.679V278.679Z" stroke="#1C538E"/>
<path d="M50.875 338.543L46.75 342.672L50.875 338.543Z" stroke="#1C538E"/>
<path d="M50.875 400.471L46.75 404.6L50.875 400.471Z" stroke="#1C538E"/>
<path d="M50.875 462.4L46.75 466.528L50.875 462.4Z" stroke="#1C538E"/>
<path d="M55 520.2L42.625 532.586L55 520.2Z" stroke="#1C538E"/>
<path d="M105.531 30.9642C105.531 32.3329 106.074 33.6455 107.041 34.6134C108.008 35.5812 109.32 36.1249 110.688 36.1249C112.055 36.1249 113.367 35.5812 114.334 34.6134C115.301 33.6455 115.844 32.3329 115.844 30.9642C115.844 29.5955 115.301 28.2828 114.334 27.315C113.367 26.3472 112.055 25.8035 110.688 25.8035C109.32 25.8035 108.008 26.3472 107.041 27.315C106.074 28.2828 105.531 29.5955 105.531 30.9642V30.9642Z" stroke="#1C538E"/>
<path d="M116.875 86.7L104.5 99.0857L116.875 86.7Z" stroke="#1C538E"/>
<path d="M109.656 154.821C109.656 155.095 109.765 155.358 109.958 155.551C110.152 155.745 110.414 155.854 110.688 155.854C110.961 155.854 111.223 155.745 111.417 155.551C111.61 155.358 111.719 155.095 111.719 154.821C111.719 154.548 111.61 154.285 111.417 154.092C111.223 153.898 110.961 153.789 110.688 153.789C110.414 153.789 110.152 153.898 109.958 154.092C109.765 154.285 109.656 154.548 109.656 154.821V154.821Z" stroke="#1C538E"/>
<path d="M116.875 210.557L104.5 222.943L116.875 210.557Z" stroke="#1C538E"/>
<path d="M116.875 272.486L104.5 284.872L116.875 272.486Z" stroke="#1C538E"/>
<path d="M105.531 340.607C105.531 341.976 106.074 343.289 107.041 344.256C108.008 345.224 109.32 345.768 110.688 345.768C112.055 345.768 113.367 345.224 114.334 344.256C115.301 343.289 115.844 341.976 115.844 340.607C115.844 339.239 115.301 337.926 114.334 336.958C113.367 335.99 112.055 335.447 110.688 335.447C109.32 335.447 108.008 335.99 107.041 336.958C106.074 337.926 105.531 339.239 105.531 340.607V340.607Z" stroke="#1C538E"/>
<path d="M112.75 400.471L108.625 404.6L112.75 400.471Z" stroke="#1C538E"/>
<path d="M116.875 458.271L104.5 470.657L116.875 458.271Z" stroke="#1C538E"/>
<path d="M105.531 526.393C105.531 527.762 106.074 529.074 107.041 530.042C108.008 531.01 109.32 531.554 110.688 531.554C112.055 531.554 113.367 531.01 114.334 530.042C115.301 529.074 115.844 527.762 115.844 526.393C115.844 525.024 115.301 523.712 114.334 522.744C113.367 521.776 112.055 521.232 110.688 521.232C109.32 521.232 108.008 521.776 107.041 522.744C106.074 523.712 105.531 525.024 105.531 526.393V526.393Z" stroke="#1C538E"/>
<path d="M167.406 30.9642C167.406 32.3329 167.949 33.6455 168.916 34.6134C169.883 35.5812 171.195 36.1249 172.562 36.1249C173.93 36.1249 175.242 35.5812 176.209 34.6134C177.176 33.6455 177.719 32.3329 177.719 30.9642C177.719 29.5955 177.176 28.2828 176.209 27.315C175.242 26.3472 173.93 25.8035 172.562 25.8035C171.195 25.8035 169.883 26.3472 168.916 27.315C167.949 28.2828 167.406 29.5955 167.406 30.9642V30.9642Z" stroke="#1C538E"/>
<path d="M178.75 86.7L166.375 99.0857L178.75 86.7Z" stroke="#1C538E"/>
<path d="M174.625 152.757L170.5 156.886L174.625 152.757Z" stroke="#1C538E"/>
<path d="M169.469 216.75C169.469 217.571 169.795 218.359 170.375 218.939C170.955 219.52 171.742 219.846 172.562 219.846C173.383 219.846 174.17 219.52 174.75 218.939C175.33 218.359 175.656 217.571 175.656 216.75C175.656 215.929 175.33 215.141 174.75 214.56C174.17 213.98 173.383 213.654 172.562 213.654C171.742 213.654 170.955 213.98 170.375 214.56C169.795 215.141 169.469 215.929 169.469 216.75V216.75Z" stroke="#1C538E"/>
<path d="M178.75 272.486L166.375 284.872L178.75 272.486Z" stroke="#1C538E"/>
<path d="M178.75 334.414L166.375 346.8L178.75 334.414Z" stroke="#1C538E"/>
<path d="M174.625 400.471L170.5 404.6L174.625 400.471Z" stroke="#1C538E"/>
<path d="M174.625 462.4L170.5 466.528L174.625 462.4Z" stroke="#1C538E"/>
<path d="M178.75 520.2L166.375 532.586L178.75 520.2Z" stroke="#1C538E"/>
<path d="M236.5 28.8999L232.375 33.0285L236.5 28.8999Z" stroke="#1C538E"/>
<path d="M229.281 92.8929C229.281 94.2616 229.824 95.5742 230.791 96.5421C231.758 97.5099 233.07 98.0536 234.438 98.0536C235.805 98.0536 237.117 97.5099 238.084 96.5421C239.051 95.5742 239.594 94.2616 239.594 92.8929C239.594 91.5242 239.051 90.2115 238.084 89.2437C237.117 88.2759 235.805 87.7322 234.438 87.7322C233.07 87.7322 231.758 88.2759 230.791 89.2437C229.824 90.2115 229.281 91.5242 229.281 92.8929V92.8929Z" stroke="#1C538E"/>
<path d="M236.5 152.757L232.375 156.886L236.5 152.757Z" stroke="#1C538E"/>
<path d="M240.625 210.557L228.25 222.943L240.625 210.557Z" stroke="#1C538E"/>
<path d="M265.375 247.714L203.5 309.643L265.375 247.714Z" stroke="#1C538E" stroke-width="3"/>
<path d="M231.344 340.607C231.344 341.428 231.67 342.216 232.25 342.797C232.83 343.377 233.617 343.704 234.438 343.704C235.258 343.704 236.045 343.377 236.625 342.797C237.205 342.216 237.531 341.428 237.531 340.607C237.531 339.786 237.205 338.998 236.625 338.418C236.045 337.837 235.258 337.511 234.438 337.511C233.617 337.511 232.83 337.837 232.25 338.418C231.67 338.998 231.344 339.786 231.344 340.607V340.607Z" stroke="#1C538E"/>
<path d="M240.625 396.343L228.25 408.728L240.625 396.343Z" stroke="#1C538E"/>
<path d="M233.406 464.464C233.406 464.738 233.515 465.001 233.708 465.194C233.902 465.388 234.164 465.496 234.438 465.496C234.711 465.496 234.973 465.388 235.167 465.194C235.36 465.001 235.469 464.738 235.469 464.464C235.469 464.191 235.36 463.928 235.167 463.734C234.973 463.541 234.711 463.432 234.438 463.432C234.164 463.432 233.902 463.541 233.708 463.734C233.515 463.928 233.406 464.191 233.406 464.464V464.464Z" stroke="#1C538E"/>
<path d="M265.375 495.428L203.5 557.357L265.375 495.428Z" stroke="#1C538E" stroke-width="3"/>
<path d="M302.5 24.7715L290.125 37.1572L302.5 24.7715Z" stroke="#1C538E"/>
<path d="M291.156 92.8929C291.156 94.2616 291.699 95.5742 292.666 96.5421C293.633 97.5099 294.945 98.0536 296.312 98.0536C297.68 98.0536 298.992 97.5099 299.959 96.5421C300.926 95.5742 301.469 94.2616 301.469 92.8929C301.469 91.5242 300.926 90.2115 299.959 89.2437C298.992 88.2759 297.68 87.7322 296.312 87.7322C294.945 87.7322 293.633 88.2759 292.666 89.2437C291.699 90.2115 291.156 91.5242 291.156 92.8929V92.8929Z" stroke="#1C538E"/>
<path d="M291.156 154.821C291.156 156.19 291.699 157.503 292.666 158.471C293.633 159.438 294.945 159.982 296.312 159.982C297.68 159.982 298.992 159.438 299.959 158.471C300.926 157.503 301.469 156.19 301.469 154.821C301.469 153.453 300.926 152.14 299.959 151.172C298.992 150.204 297.68 149.661 296.312 149.661C294.945 149.661 293.633 150.204 292.666 151.172C291.699 152.14 291.156 153.453 291.156 154.821V154.821Z" stroke="#1C538E"/>
<path d="M291.156 216.75C291.156 218.119 291.699 219.431 292.666 220.399C293.633 221.367 294.945 221.911 296.312 221.911C297.68 221.911 298.992 221.367 299.959 220.399C300.926 219.431 301.469 218.119 301.469 216.75C301.469 215.381 300.926 214.069 299.959 213.101C298.992 212.133 297.68 211.589 296.312 211.589C294.945 211.589 293.633 212.133 292.666 213.101C291.699 214.069 291.156 215.381 291.156 216.75V216.75Z" stroke="#1C538E"/>
<path d="M302.5 272.486L290.125 284.872L302.5 272.486Z" stroke="#1C538E"/>
<path d="M302.5 334.414L290.125 346.8L302.5 334.414Z" stroke="#1C538E"/>
<path d="M291.156 402.536C291.156 403.904 291.699 405.217 292.666 406.185C293.633 407.153 294.945 407.696 296.312 407.696C297.68 407.696 298.992 407.153 299.959 406.185C300.926 405.217 301.469 403.904 301.469 402.536C301.469 401.167 300.926 399.854 299.959 398.887C298.992 397.919 297.68 397.375 296.312 397.375C294.945 397.375 293.633 397.919 292.666 398.887C291.699 399.854 291.156 401.167 291.156 402.536V402.536Z" stroke="#1C538E"/>
<path d="M291.156 464.464C291.156 465.833 291.699 467.146 292.666 468.113C293.633 469.081 294.945 469.625 296.312 469.625C297.68 469.625 298.992 469.081 299.959 468.113C300.926 467.146 301.469 465.833 301.469 464.464C301.469 463.095 300.926 461.783 299.959 460.815C298.992 459.847 297.68 459.303 296.312 459.303C294.945 459.303 293.633 459.847 292.666 460.815C291.699 461.783 291.156 463.095 291.156 464.464V464.464Z" stroke="#1C538E"/>
<path d="M298.375 524.329L294.25 528.457L298.375 524.329Z" stroke="#1C538E"/>
<path d="M389.125 0L327.25 61.9286L389.125 0Z" stroke="#1C538E" stroke-width="3"/>
<path d="M360.25 90.8286L356.125 94.9572L360.25 90.8286Z" stroke="#1C538E"/>
<path d="M353.031 154.821C353.031 156.19 353.574 157.503 354.541 158.471C355.508 159.438 356.82 159.982 358.188 159.982C359.555 159.982 360.867 159.438 361.834 158.471C362.801 157.503 363.344 156.19 363.344 154.821C363.344 153.453 362.801 152.14 361.834 151.172C360.867 150.204 359.555 149.661 358.188 149.661C356.82 149.661 355.508 150.204 354.541 151.172C353.574 152.14 353.031 153.453 353.031 154.821V154.821Z" stroke="#1C538E"/>
<path d="M364.375 210.557L352 222.943L364.375 210.557Z" stroke="#1C538E"/>
<path d="M353.031 278.679C353.031 280.047 353.574 281.36 354.541 282.328C355.508 283.296 356.82 283.839 358.188 283.839C359.555 283.839 360.867 283.296 361.834 282.328C362.801 281.36 363.344 280.047 363.344 278.679C363.344 277.31 362.801 275.997 361.834 275.029C360.867 274.062 359.555 273.518 358.188 273.518C356.82 273.518 355.508 274.062 354.541 275.029C353.574 275.997 353.031 277.31 353.031 278.679V278.679Z" stroke="#1C538E"/>
<path d="M353.031 340.607C353.031 341.976 353.574 343.289 354.541 344.256C355.508 345.224 356.82 345.768 358.188 345.768C359.555 345.768 360.867 345.224 361.834 344.256C362.801 343.289 363.344 341.976 363.344 340.607C363.344 339.239 362.801 337.926 361.834 336.958C360.867 335.99 359.555 335.447 358.188 335.447C356.82 335.447 355.508 335.99 354.541 336.958C353.574 337.926 353.031 339.239 353.031 340.607V340.607Z" stroke="#1C538E"/>
<path d="M364.375 396.343L352 408.728L364.375 396.343Z" stroke="#1C538E"/>
<path d="M355.094 464.464C355.094 465.286 355.42 466.073 356 466.654C356.58 467.235 357.367 467.561 358.188 467.561C359.008 467.561 359.795 467.235 360.375 466.654C360.955 466.073 361.281 465.286 361.281 464.464C361.281 463.643 360.955 462.856 360.375 462.275C359.795 461.694 359.008 461.368 358.188 461.368C357.367 461.368 356.58 461.694 356 462.275C355.42 462.856 355.094 463.643 355.094 464.464V464.464Z" stroke="#1C538E"/>
<path d="M355.094 526.393C355.094 527.214 355.42 528.002 356 528.582C356.58 529.163 357.367 529.489 358.188 529.489C359.008 529.489 359.795 529.163 360.375 528.582C360.955 528.002 361.281 527.214 361.281 526.393C361.281 525.572 360.955 524.784 360.375 524.203C359.795 523.623 359.008 523.296 358.188 523.296C357.367 523.296 356.58 523.623 356 524.203C355.42 524.784 355.094 525.572 355.094 526.393V526.393Z" stroke="#1C538E"/>
<path d="M426.25 24.7715L413.875 37.1572L426.25 24.7715Z" stroke="#1C538E"/>
<path d="M414.906 92.8929C414.906 94.2616 415.449 95.5742 416.416 96.5421C417.383 97.5099 418.695 98.0536 420.062 98.0536C421.43 98.0536 422.742 97.5099 423.709 96.5421C424.676 95.5742 425.219 94.2616 425.219 92.8929C425.219 91.5242 424.676 90.2115 423.709 89.2437C422.742 88.2759 421.43 87.7322 420.062 87.7322C418.695 87.7322 417.383 88.2759 416.416 89.2437C415.449 90.2115 414.906 91.5242 414.906 92.8929V92.8929Z" stroke="#1C538E"/>
<path d="M426.25 148.629L413.875 161.014L426.25 148.629Z" stroke="#1C538E"/>
<path d="M422.125 214.686L418 218.814L422.125 214.686Z" stroke="#1C538E"/>
<path d="M426.25 272.486L413.875 284.872L426.25 272.486Z" stroke="#1C538E"/>
<path d="M422.125 338.543L418 342.672L422.125 338.543Z" stroke="#1C538E"/>
<path d="M426.25 396.343L413.875 408.728L426.25 396.343Z" stroke="#1C538E"/>
<path d="M426.25 458.271L413.875 470.657L426.25 458.271Z" stroke="#1C538E"/>
<path d="M422.125 524.329L418 528.457L422.125 524.329Z" stroke="#1C538E"/>
<path d="M476.781 30.9642C476.781 32.3329 477.324 33.6455 478.291 34.6134C479.258 35.5812 480.57 36.1249 481.938 36.1249C483.305 36.1249 484.617 35.5812 485.584 34.6134C486.551 33.6455 487.094 32.3329 487.094 30.9642C487.094 29.5955 486.551 28.2828 485.584 27.315C484.617 26.3472 483.305 25.8035 481.938 25.8035C480.57 25.8035 479.258 26.3472 478.291 27.315C477.324 28.2828 476.781 29.5955 476.781 30.9642V30.9642Z" stroke="#1C538E"/>
<path d="M484 90.8286L479.875 94.9572L484 90.8286Z" stroke="#1C538E"/>
<path d="M476.781 154.821C476.781 156.19 477.324 157.503 478.291 158.471C479.258 159.438 480.57 159.982 481.938 159.982C483.305 159.982 484.617 159.438 485.584 158.471C486.551 157.503 487.094 156.19 487.094 154.821C487.094 153.453 486.551 152.14 485.584 151.172C484.617 150.204 483.305 149.661 481.938 149.661C480.57 149.661 479.258 150.204 478.291 151.172C477.324 152.14 476.781 153.453 476.781 154.821V154.821Z" stroke="#1C538E"/>
<path d="M484 214.686L479.875 218.814L484 214.686Z" stroke="#1C538E"/>
<path d="M488.125 272.486L475.75 284.872L488.125 272.486Z" stroke="#1C538E"/>
<path d="M476.781 340.607C476.781 341.976 477.324 343.289 478.291 344.256C479.258 345.224 480.57 345.768 481.938 345.768C483.305 345.768 484.617 345.224 485.584 344.256C486.551 343.289 487.094 341.976 487.094 340.607C487.094 339.239 486.551 337.926 485.584 336.958C484.617 335.99 483.305 335.447 481.938 335.447C480.57 335.447 479.258 335.99 478.291 336.958C477.324 337.926 476.781 339.239 476.781 340.607V340.607Z" stroke="#1C538E"/>
<path d="M476.781 402.536C476.781 403.904 477.324 405.217 478.291 406.185C479.258 407.153 480.57 407.696 481.938 407.696C483.305 407.696 484.617 407.153 485.584 406.185C486.551 405.217 487.094 403.904 487.094 402.536C487.094 401.167 486.551 399.854 485.584 398.887C484.617 397.919 483.305 397.375 481.938 397.375C480.57 397.375 479.258 397.919 478.291 398.887C477.324 399.854 476.781 401.167 476.781 402.536V402.536Z" stroke="#1C538E"/>
<path d="M478.844 464.464C478.844 465.286 479.17 466.073 479.75 466.654C480.33 467.235 481.117 467.561 481.938 467.561C482.758 467.561 483.545 467.235 484.125 466.654C484.705 466.073 485.031 465.286 485.031 464.464C485.031 463.643 484.705 462.856 484.125 462.275C483.545 461.694 482.758 461.368 481.938 461.368C481.117 461.368 480.33 461.694 479.75 462.275C479.17 462.856 478.844 463.643 478.844 464.464V464.464Z" stroke="#1C538E"/>
<path d="M488.125 520.2L475.75 532.586L488.125 520.2Z" stroke="#1C538E"/>
<path d="M538.656 30.9642C538.656 32.3329 539.199 33.6455 540.166 34.6134C541.133 35.5812 542.445 36.1249 543.812 36.1249C545.18 36.1249 546.492 35.5812 547.459 34.6134C548.426 33.6455 548.969 32.3329 548.969 30.9642C548.969 29.5955 548.426 28.2828 547.459 27.315C546.492 26.3472 545.18 25.8035 543.812 25.8035C542.445 25.8035 541.133 26.3472 540.166 27.315C539.199 28.2828 538.656 29.5955 538.656 30.9642V30.9642Z" stroke="#1C538E"/>
<path d="M550 86.7L537.625 99.0857L550 86.7Z" stroke="#1C538E"/>
<path d="M574.75 123.857L512.875 185.786L574.75 123.857Z" stroke="#1C538E" stroke-width="3"/>
<path d="M550 210.557L537.625 222.943L550 210.557Z" stroke="#1C538E"/>
<path d="M538.656 278.679C538.656 280.047 539.199 281.36 540.166 282.328C541.133 283.296 542.445 283.839 543.812 283.839C545.18 283.839 546.492 283.296 547.459 282.328C548.426 281.36 548.969 280.047 548.969 278.679C548.969 277.31 548.426 275.997 547.459 275.029C546.492 274.062 545.18 273.518 543.812 273.518C542.445 273.518 541.133 274.062 540.166 275.029C539.199 275.997 538.656 277.31 538.656 278.679V278.679Z" stroke="#1C538E"/>
<path d="M550 334.414L537.625 346.8L550 334.414Z" stroke="#1C538E"/>
<path d="M545.875 400.471L541.75 404.6L545.875 400.471Z" stroke="#1C538E"/>
<path d="M538.656 464.464C538.656 465.833 539.199 467.146 540.166 468.113C541.133 469.081 542.445 469.625 543.812 469.625C545.18 469.625 546.492 469.081 547.459 468.113C548.426 467.146 548.969 465.833 548.969 464.464C548.969 463.095 548.426 461.783 547.459 460.815C546.492 459.847 545.18 459.303 543.812 459.303C542.445 459.303 541.133 459.847 540.166 460.815C539.199 461.783 538.656 463.095 538.656 464.464V464.464Z" stroke="#1C538E"/>
<path d="M550 520.2L537.625 532.586L550 520.2Z" stroke="#1C538E"/>
<path d="M611.875 24.7715L599.5 37.1572L611.875 24.7715Z" stroke="#1C538E"/>
<path d="M600.531 92.8929C600.531 94.2616 601.074 95.5742 602.041 96.5421C603.008 97.5099 604.32 98.0536 605.688 98.0536C607.055 98.0536 608.367 97.5099 609.334 96.5421C610.301 95.5742 610.844 94.2616 610.844 92.8929C610.844 91.5242 610.301 90.2115 609.334 89.2437C608.367 88.2759 607.055 87.7322 605.688 87.7322C604.32 87.7322 603.008 88.2759 602.041 89.2437C601.074 90.2115 600.531 91.5242 600.531 92.8929V92.8929Z" stroke="#1C538E"/>
<path d="M600.531 154.821C600.531 156.19 601.074 157.503 602.041 158.471C603.008 159.438 604.32 159.982 605.688 159.982C607.055 159.982 608.367 159.438 609.334 158.471C610.301 157.503 610.844 156.19 610.844 154.821C610.844 153.453 610.301 152.14 609.334 151.172C608.367 150.204 607.055 149.661 605.688 149.661C604.32 149.661 603.008 150.204 602.041 151.172C601.074 152.14 600.531 153.453 600.531 154.821V154.821Z" stroke="#1C538E"/>
<path d="M602.594 216.75C602.594 217.571 602.92 218.359 603.5 218.939C604.08 219.52 604.867 219.846 605.688 219.846C606.508 219.846 607.295 219.52 607.875 218.939C608.455 218.359 608.781 217.571 608.781 216.75C608.781 215.929 608.455 215.141 607.875 214.56C607.295 213.98 606.508 213.654 605.688 213.654C604.867 213.654 604.08 213.98 603.5 214.56C602.92 215.141 602.594 215.929 602.594 216.75V216.75Z" stroke="#1C538E"/>
<path d="M604.656 278.679C604.656 278.952 604.765 279.215 604.958 279.408C605.152 279.602 605.414 279.711 605.688 279.711C605.961 279.711 606.223 279.602 606.417 279.408C606.61 279.215 606.719 278.952 606.719 278.679C606.719 278.405 606.61 278.142 606.417 277.949C606.223 277.755 605.961 277.646 605.688 277.646C605.414 277.646 605.152 277.755 604.958 277.949C604.765 278.142 604.656 278.405 604.656 278.679V278.679Z" stroke="#1C538E"/>
<path d="M611.875 334.414L599.5 346.8L611.875 334.414Z" stroke="#1C538E"/>
<path d="M611.875 396.343L599.5 408.728L611.875 396.343Z" stroke="#1C538E"/>
<path d="M604.656 464.464C604.656 464.738 604.765 465.001 604.958 465.194C605.152 465.388 605.414 465.496 605.688 465.496C605.961 465.496 606.223 465.388 606.417 465.194C606.61 465.001 606.719 464.738 606.719 464.464C606.719 464.191 606.61 463.928 606.417 463.734C606.223 463.541 605.961 463.432 605.688 463.432C605.414 463.432 605.152 463.541 604.958 463.734C604.765 463.928 604.656 464.191 604.656 464.464V464.464Z" stroke="#1C538E"/>
<path d="M604.656 526.393C604.656 526.667 604.765 526.929 604.958 527.123C605.152 527.316 605.414 527.425 605.688 527.425C605.961 527.425 606.223 527.316 606.417 527.123C606.61 526.929 606.719 526.667 606.719 526.393C606.719 526.119 606.61 525.857 606.417 525.663C606.223 525.47 605.961 525.361 605.688 525.361C605.414 525.361 605.152 525.47 604.958 525.663C604.765 525.857 604.656 526.119 604.656 526.393V526.393Z" stroke="#1C538E"/>
<path d="M662.406 30.9642C662.406 32.3329 662.949 33.6455 663.916 34.6134C664.883 35.5812 666.195 36.1249 667.562 36.1249C668.93 36.1249 670.242 35.5812 671.209 34.6134C672.176 33.6455 672.719 32.3329 672.719 30.9642C672.719 29.5955 672.176 28.2828 671.209 27.315C670.242 26.3472 668.93 25.8035 667.562 25.8035C666.195 25.8035 664.883 26.3472 663.916 27.315C662.949 28.2828 662.406 29.5955 662.406 30.9642V30.9642Z" stroke="#1C538E"/>
<path d="M669.625 90.8286L665.5 94.9572L669.625 90.8286Z" stroke="#1C538E"/>
<path d="M669.625 152.757L665.5 156.886L669.625 152.757Z" stroke="#1C538E"/>
<path d="M666.531 216.75C666.531 217.024 666.64 217.286 666.833 217.48C667.027 217.673 667.289 217.782 667.562 217.782C667.836 217.782 668.098 217.673 668.292 217.48C668.485 217.286 668.594 217.024 668.594 216.75C668.594 216.476 668.485 216.214 668.292 216.02C668.098 215.827 667.836 215.718 667.562 215.718C667.289 215.718 667.027 215.827 666.833 216.02C666.64 216.214 666.531 216.476 666.531 216.75V216.75Z" stroke="#1C538E"/>
<path d="M669.625 276.614L665.5 280.743L669.625 276.614Z" stroke="#1C538E"/>
<path d="M664.469 340.607C664.469 341.428 664.795 342.216 665.375 342.797C665.955 343.377 666.742 343.704 667.562 343.704C668.383 343.704 669.17 343.377 669.75 342.797C670.33 342.216 670.656 341.428 670.656 340.607C670.656 339.786 670.33 338.998 669.75 338.418C669.17 337.837 668.383 337.511 667.562 337.511C666.742 337.511 665.955 337.837 665.375 338.418C664.795 338.998 664.469 339.786 664.469 340.607V340.607Z" stroke="#1C538E"/>
<path d="M669.625 400.471L665.5 404.6L669.625 400.471Z" stroke="#1C538E"/>
<path d="M673.75 458.271L661.375 470.657L673.75 458.271Z" stroke="#1C538E"/>
<path d="M662.406 526.393C662.406 527.762 662.949 529.074 663.916 530.042C664.883 531.01 666.195 531.554 667.562 531.554C668.93 531.554 670.242 531.01 671.209 530.042C672.176 529.074 672.719 527.762 672.719 526.393C672.719 525.024 672.176 523.712 671.209 522.744C670.242 521.776 668.93 521.232 667.562 521.232C666.195 521.232 664.883 521.776 663.916 522.744C662.949 523.712 662.406 525.024 662.406 526.393V526.393Z" stroke="#1C538E"/>
<path d="M731.5 28.8999L727.375 33.0285L731.5 28.8999Z" stroke="#1C538E"/>
<path d="M735.625 86.7L723.25 99.0857L735.625 86.7Z" stroke="#1C538E"/>
<path d="M724.281 154.821C724.281 156.19 724.824 157.503 725.791 158.471C726.758 159.438 728.07 159.982 729.438 159.982C730.805 159.982 732.117 159.438 733.084 158.471C734.051 157.503 734.594 156.19 734.594 154.821C734.594 153.453 734.051 152.14 733.084 151.172C732.117 150.204 730.805 149.661 729.438 149.661C728.07 149.661 726.758 150.204 725.791 151.172C724.824 152.14 724.281 153.453 724.281 154.821V154.821Z" stroke="#1C538E"/>
<path d="M724.281 216.75C724.281 218.119 724.824 219.431 725.791 220.399C726.758 221.367 728.07 221.911 729.438 221.911C730.805 221.911 732.117 221.367 733.084 220.399C734.051 219.431 734.594 218.119 734.594 216.75C734.594 215.381 734.051 214.069 733.084 213.101C732.117 212.133 730.805 211.589 729.438 211.589C728.07 211.589 726.758 212.133 725.791 213.101C724.824 214.069 724.281 215.381 724.281 216.75V216.75Z" stroke="#1C538E"/>
<path d="M724.281 278.679C724.281 280.047 724.824 281.36 725.791 282.328C726.758 283.296 728.07 283.839 729.438 283.839C730.805 283.839 732.117 283.296 733.084 282.328C734.051 281.36 734.594 280.047 734.594 278.679C734.594 277.31 734.051 275.997 733.084 275.029C732.117 274.062 730.805 273.518 729.438 273.518C728.07 273.518 726.758 274.062 725.791 275.029C724.824 275.997 724.281 277.31 724.281 278.679V278.679Z" stroke="#1C538E"/>
<path d="M735.625 334.414L723.25 346.8L735.625 334.414Z" stroke="#1C538E"/>
<path d="M726.344 402.536C726.344 403.357 726.67 404.144 727.25 404.725C727.83 405.306 728.617 405.632 729.438 405.632C730.258 405.632 731.045 405.306 731.625 404.725C732.205 404.144 732.531 403.357 732.531 402.536C732.531 401.714 732.205 400.927 731.625 400.346C731.045 399.765 730.258 399.439 729.438 399.439C728.617 399.439 727.83 399.765 727.25 400.346C726.67 400.927 726.344 401.714 726.344 402.536V402.536Z" stroke="#1C538E"/>
<path d="M724.281 464.464C724.281 465.833 724.824 467.146 725.791 468.113C726.758 469.081 728.07 469.625 729.438 469.625C730.805 469.625 732.117 469.081 733.084 468.113C734.051 467.146 734.594 465.833 734.594 464.464C734.594 463.095 734.051 461.783 733.084 460.815C732.117 459.847 730.805 459.303 729.438 459.303C728.07 459.303 726.758 459.847 725.791 460.815C724.824 461.783 724.281 463.095 724.281 464.464V464.464Z" stroke="#1C538E"/>
<path d="M724.281 526.393C724.281 527.762 724.824 529.074 725.791 530.042C726.758 531.01 728.07 531.554 729.438 531.554C730.805 531.554 732.117 531.01 733.084 530.042C734.051 529.074 734.594 527.762 734.594 526.393C734.594 525.024 734.051 523.712 733.084 522.744C732.117 521.776 730.805 521.232 729.438 521.232C728.07 521.232 726.758 521.776 725.791 522.744C724.824 523.712 724.281 525.024 724.281 526.393V526.393Z" stroke="#1C538E"/>
<path d="M797.5 24.7715L785.125 37.1572L797.5 24.7715Z" stroke="#1C538E"/>
<path d="M790.281 92.893C790.281 93.1667 790.39 93.4293 790.583 93.6228C790.777 93.8164 791.039 93.9251 791.312 93.9251C791.586 93.9251 791.848 93.8164 792.042 93.6228C792.235 93.4293 792.344 93.1667 792.344 92.893C792.344 92.6192 792.235 92.3567 792.042 92.1631C791.848 91.9696 791.586 91.8608 791.312 91.8608C791.039 91.8608 790.777 91.9696 790.583 92.1631C790.39 92.3567 790.281 92.6192 790.281 92.893V92.893Z" stroke="#1C538E"/>
<path d="M788.219 154.822C788.219 155.643 788.545 156.43 789.125 157.011C789.705 157.592 790.492 157.918 791.312 157.918C792.133 157.918 792.92 157.592 793.5 157.011C794.08 156.43 794.406 155.643 794.406 154.822C794.406 154 794.08 153.213 793.5 152.632C792.92 152.051 792.133 151.725 791.312 151.725C790.492 151.725 789.705 152.051 789.125 152.632C788.545 153.213 788.219 154 788.219 154.822V154.822Z" stroke="#1C538E"/>
<path d="M786.156 216.75C786.156 218.119 786.699 219.431 787.666 220.399C788.633 221.367 789.945 221.911 791.312 221.911C792.68 221.911 793.992 221.367 794.959 220.399C795.926 219.431 796.469 218.119 796.469 216.75C796.469 215.381 795.926 214.069 794.959 213.101C793.992 212.133 792.68 211.589 791.312 211.589C789.945 211.589 788.633 212.133 787.666 213.101C786.699 214.069 786.156 215.381 786.156 216.75V216.75Z" stroke="#1C538E"/>
<path d="M786.156 278.679C786.156 280.047 786.699 281.36 787.666 282.328C788.633 283.296 789.945 283.839 791.312 283.839C792.68 283.839 793.992 283.296 794.959 282.328C795.926 281.36 796.469 280.047 796.469 278.679C796.469 277.31 795.926 275.997 794.959 275.029C793.992 274.062 792.68 273.518 791.312 273.518C789.945 273.518 788.633 274.062 787.666 275.029C786.699 275.997 786.156 277.31 786.156 278.679V278.679Z" stroke="#1C538E"/>
<path d="M793.375 338.543L789.25 342.672L793.375 338.543Z" stroke="#1C538E"/>
<path d="M793.375 400.471L789.25 404.6L793.375 400.471Z" stroke="#1C538E"/>
<path d="M793.375 462.4L789.25 466.528L793.375 462.4Z" stroke="#1C538E"/>
<path d="M797.5 520.2L785.125 532.586L797.5 520.2Z" stroke="#1C538E"/>
<path d="M848.031 30.9642C848.031 32.3329 848.574 33.6455 849.541 34.6134C850.508 35.5812 851.82 36.1249 853.188 36.1249C854.555 36.1249 855.867 35.5812 856.834 34.6134C857.801 33.6455 858.344 32.3329 858.344 30.9642C858.344 29.5955 857.801 28.2828 856.834 27.315C855.867 26.3472 854.555 25.8035 853.188 25.8035C851.82 25.8035 850.508 26.3472 849.541 27.315C848.574 28.2828 848.031 29.5955 848.031 30.9642V30.9642Z" stroke="#1C538E"/>
<path d="M859.375 86.7L847 99.0857L859.375 86.7Z" stroke="#1C538E"/>
<path d="M852.156 154.821C852.156 155.095 852.265 155.358 852.458 155.551C852.652 155.745 852.914 155.854 853.188 155.854C853.461 155.854 853.723 155.745 853.917 155.551C854.11 155.358 854.219 155.095 854.219 154.821C854.219 154.548 854.11 154.285 853.917 154.092C853.723 153.898 853.461 153.789 853.188 153.789C852.914 153.789 852.652 153.898 852.458 154.092C852.265 154.285 852.156 154.548 852.156 154.821V154.821Z" stroke="#1C538E"/>
<path d="M859.375 210.557L847 222.943L859.375 210.557Z" stroke="#1C538E"/>
<path d="M859.375 272.486L847 284.872L859.375 272.486Z" stroke="#1C538E"/>
<path d="M848.031 340.607C848.031 341.976 848.574 343.289 849.541 344.256C850.508 345.224 851.82 345.768 853.188 345.768C854.555 345.768 855.867 345.224 856.834 344.256C857.801 343.289 858.344 341.976 858.344 340.607C858.344 339.239 857.801 337.926 856.834 336.958C855.867 335.99 854.555 335.447 853.188 335.447C851.82 335.447 850.508 335.99 849.541 336.958C848.574 337.926 848.031 339.239 848.031 340.607V340.607Z" stroke="#1C538E"/>
<path d="M855.25 400.471L851.125 404.6L855.25 400.471Z" stroke="#1C538E"/>
<path d="M859.375 458.271L847 470.657L859.375 458.271Z" stroke="#1C538E"/>
<path d="M848.031 526.393C848.031 527.762 848.574 529.074 849.541 530.042C850.508 531.01 851.82 531.554 853.188 531.554C854.555 531.554 855.867 531.01 856.834 530.042C857.801 529.074 858.344 527.762 858.344 526.393C858.344 525.024 857.801 523.712 856.834 522.744C855.867 521.776 854.555 521.232 853.188 521.232C851.82 521.232 850.508 521.776 849.541 522.744C848.574 523.712 848.031 525.024 848.031 526.393V526.393Z" stroke="#1C538E"/>
<path d="M909.906 30.9642C909.906 32.3329 910.449 33.6455 911.416 34.6134C912.383 35.5812 913.695 36.1249 915.062 36.1249C916.43 36.1249 917.742 35.5812 918.709 34.6134C919.676 33.6455 920.219 32.3329 920.219 30.9642C920.219 29.5955 919.676 28.2828 918.709 27.315C917.742 26.3472 916.43 25.8035 915.062 25.8035C913.695 25.8035 912.383 26.3472 911.416 27.315C910.449 28.2828 909.906 29.5955 909.906 30.9642V30.9642Z" stroke="#1C538E"/>
<path d="M921.25 86.7L908.875 99.0857L921.25 86.7Z" stroke="#1C538E"/>
<path d="M917.125 152.757L913 156.886L917.125 152.757Z" stroke="#1C538E"/>
<path d="M911.969 216.75C911.969 217.571 912.295 218.359 912.875 218.939C913.455 219.52 914.242 219.846 915.062 219.846C915.883 219.846 916.67 219.52 917.25 218.939C917.83 218.359 918.156 217.571 918.156 216.75C918.156 215.929 917.83 215.141 917.25 214.56C916.67 213.98 915.883 213.654 915.062 213.654C914.242 213.654 913.455 213.98 912.875 214.56C912.295 215.141 911.969 215.929 911.969 216.75V216.75Z" stroke="#1C538E"/>
<path d="M921.25 272.486L908.875 284.872L921.25 272.486Z" stroke="#1C538E"/>
<path d="M921.25 334.414L908.875 346.8L921.25 334.414Z" stroke="#1C538E"/>
<path d="M917.125 400.471L913 404.6L917.125 400.471Z" stroke="#1C538E"/>
<path d="M917.125 462.4L913 466.528L917.125 462.4Z" stroke="#1C538E"/>
<path d="M921.25 520.2L908.875 532.586L921.25 520.2Z" stroke="#1C538E"/>
<path d="M979 28.8999L974.875 33.0285L979 28.8999Z" stroke="#1C538E"/>
<path d="M971.781 92.8929C971.781 94.2616 972.324 95.5742 973.291 96.5421C974.258 97.5099 975.57 98.0536 976.938 98.0536C978.305 98.0536 979.617 97.5099 980.584 96.5421C981.551 95.5742 982.094 94.2616 982.094 92.8929C982.094 91.5242 981.551 90.2115 980.584 89.2437C979.617 88.2759 978.305 87.7322 976.938 87.7322C975.57 87.7322 974.258 88.2759 973.291 89.2437C972.324 90.2115 971.781 91.5242 971.781 92.8929V92.8929Z" stroke="#1C538E"/>
<path d="M979 152.757L974.875 156.886L979 152.757Z" stroke="#1C538E"/>
<path d="M983.125 210.557L970.75 222.943L983.125 210.557Z" stroke="#1C538E"/>
<path d="M1007.88 247.714L946 309.643L1007.88 247.714Z" stroke="#1C538E" stroke-width="3"/>
<path d="M973.844 340.607C973.844 341.428 974.17 342.216 974.75 342.797C975.33 343.377 976.117 343.704 976.938 343.704C977.758 343.704 978.545 343.377 979.125 342.797C979.705 342.216 980.031 341.428 980.031 340.607C980.031 339.786 979.705 338.998 979.125 338.418C978.545 337.837 977.758 337.511 976.938 337.511C976.117 337.511 975.33 337.837 974.75 338.418C974.17 338.998 973.844 339.786 973.844 340.607V340.607Z" stroke="#1C538E"/>
<path d="M983.125 396.343L970.75 408.728L983.125 396.343Z" stroke="#1C538E"/>
<path d="M975.906 464.464C975.906 464.738 976.015 465.001 976.208 465.194C976.402 465.388 976.664 465.496 976.938 465.496C977.211 465.496 977.473 465.388 977.667 465.194C977.86 465.001 977.969 464.738 977.969 464.464C977.969 464.191 977.86 463.928 977.667 463.734C977.473 463.541 977.211 463.432 976.938 463.432C976.664 463.432 976.402 463.541 976.208 463.734C976.015 463.928 975.906 464.191 975.906 464.464V464.464Z" stroke="#1C538E"/>
<path d="M1007.88 495.428L946 557.357L1007.88 495.428Z" stroke="#1C538E" stroke-width="3"/>
<path d="M1045 24.7715L1032.62 37.1572L1045 24.7715Z" stroke="#1C538E"/>
<path d="M1033.66 92.8929C1033.66 94.2616 1034.2 95.5742 1035.17 96.5421C1036.13 97.5099 1037.44 98.0536 1038.81 98.0536C1040.18 98.0536 1041.49 97.5099 1042.46 96.5421C1043.43 95.5742 1043.97 94.2616 1043.97 92.8929C1043.97 91.5242 1043.43 90.2115 1042.46 89.2437C1041.49 88.2759 1040.18 87.7322 1038.81 87.7322C1037.44 87.7322 1036.13 88.2759 1035.17 89.2437C1034.2 90.2115 1033.66 91.5242 1033.66 92.8929V92.8929Z" stroke="#1C538E"/>
<path d="M1033.66 154.821C1033.66 156.19 1034.2 157.503 1035.17 158.471C1036.13 159.438 1037.44 159.982 1038.81 159.982C1040.18 159.982 1041.49 159.438 1042.46 158.471C1043.43 157.503 1043.97 156.19 1043.97 154.821C1043.97 153.453 1043.43 152.14 1042.46 151.172C1041.49 150.204 1040.18 149.661 1038.81 149.661C1037.44 149.661 1036.13 150.204 1035.17 151.172C1034.2 152.14 1033.66 153.453 1033.66 154.821V154.821Z" stroke="#1C538E"/>
<path d="M1033.66 216.75C1033.66 218.119 1034.2 219.431 1035.17 220.399C1036.13 221.367 1037.44 221.911 1038.81 221.911C1040.18 221.911 1041.49 221.367 1042.46 220.399C1043.43 219.431 1043.97 218.119 1043.97 216.75C1043.97 215.381 1043.43 214.069 1042.46 213.101C1041.49 212.133 1040.18 211.589 1038.81 211.589C1037.44 211.589 1036.13 212.133 1035.17 213.101C1034.2 214.069 1033.66 215.381 1033.66 216.75V216.75Z" stroke="#1C538E"/>
<path d="M1045 272.486L1032.62 284.872L1045 272.486Z" stroke="#1C538E"/>
<path d="M1045 334.414L1032.62 346.8L1045 334.414Z" stroke="#1C538E"/>
<path d="M1033.66 402.536C1033.66 403.904 1034.2 405.217 1035.17 406.185C1036.13 407.153 1037.44 407.696 1038.81 407.696C1040.18 407.696 1041.49 407.153 1042.46 406.185C1043.43 405.217 1043.97 403.904 1043.97 402.536C1043.97 401.167 1043.43 399.854 1042.46 398.887C1041.49 397.919 1040.18 397.375 1038.81 397.375C1037.44 397.375 1036.13 397.919 1035.17 398.887C1034.2 399.854 1033.66 401.167 1033.66 402.536V402.536Z" stroke="#1C538E"/>
<path d="M1033.66 464.464C1033.66 465.833 1034.2 467.146 1035.17 468.113C1036.13 469.081 1037.44 469.625 1038.81 469.625C1040.18 469.625 1041.49 469.081 1042.46 468.113C1043.43 467.146 1043.97 465.833 1043.97 464.464C1043.97 463.095 1043.43 461.783 1042.46 460.815C1041.49 459.847 1040.18 459.303 1038.81 459.303C1037.44 459.303 1036.13 459.847 1035.17 460.815C1034.2 461.783 1033.66 463.095 1033.66 464.464V464.464Z" stroke="#1C538E"/>
<path d="M1040.88 524.329L1036.75 528.457L1040.88 524.329Z" stroke="#1C538E"/>
<path d="M1131.62 0L1069.75 61.9286L1131.62 0Z" stroke="#1C538E" stroke-width="3"/>
<path d="M1102.75 90.8286L1098.62 94.9572L1102.75 90.8286Z" stroke="#1C538E"/>
<path d="M1095.53 154.821C1095.53 156.19 1096.07 157.503 1097.04 158.471C1098.01 159.438 1099.32 159.982 1100.69 159.982C1102.06 159.982 1103.37 159.438 1104.33 158.471C1105.3 157.503 1105.84 156.19 1105.84 154.821C1105.84 153.453 1105.3 152.14 1104.33 151.172C1103.37 150.204 1102.06 149.661 1100.69 149.661C1099.32 149.661 1098.01 150.204 1097.04 151.172C1096.07 152.14 1095.53 153.453 1095.53 154.821V154.821Z" stroke="#1C538E"/>
<path d="M1106.88 210.557L1094.5 222.943L1106.88 210.557Z" stroke="#1C538E"/>
<path d="M1095.53 278.679C1095.53 280.047 1096.07 281.36 1097.04 282.328C1098.01 283.296 1099.32 283.839 1100.69 283.839C1102.06 283.839 1103.37 283.296 1104.33 282.328C1105.3 281.36 1105.84 280.047 1105.84 278.679C1105.84 277.31 1105.3 275.997 1104.33 275.029C1103.37 274.062 1102.06 273.518 1100.69 273.518C1099.32 273.518 1098.01 274.062 1097.04 275.029C1096.07 275.997 1095.53 277.31 1095.53 278.679V278.679Z" stroke="#1C538E"/>
<path d="M1095.53 340.607C1095.53 341.976 1096.07 343.289 1097.04 344.256C1098.01 345.224 1099.32 345.768 1100.69 345.768C1102.06 345.768 1103.37 345.224 1104.33 344.256C1105.3 343.289 1105.84 341.976 1105.84 340.607C1105.84 339.239 1105.3 337.926 1104.33 336.958C1103.37 335.99 1102.06 335.447 1100.69 335.447C1099.32 335.447 1098.01 335.99 1097.04 336.958C1096.07 337.926 1095.53 339.239 1095.53 340.607V340.607Z" stroke="#1C538E"/>
<path d="M1106.88 396.343L1094.5 408.728L1106.88 396.343Z" stroke="#1C538E"/>
<path d="M1097.59 464.464C1097.59 465.286 1097.92 466.073 1098.5 466.654C1099.08 467.235 1099.87 467.561 1100.69 467.561C1101.51 467.561 1102.29 467.235 1102.88 466.654C1103.46 466.073 1103.78 465.286 1103.78 464.464C1103.78 463.643 1103.46 462.856 1102.88 462.275C1102.29 461.694 1101.51 461.368 1100.69 461.368C1099.87 461.368 1099.08 461.694 1098.5 462.275C1097.92 462.856 1097.59 463.643 1097.59 464.464V464.464Z" stroke="#1C538E"/>
<path d="M1097.59 526.393C1097.59 527.214 1097.92 528.002 1098.5 528.582C1099.08 529.163 1099.87 529.489 1100.69 529.489C1101.51 529.489 1102.29 529.163 1102.88 528.582C1103.46 528.002 1103.78 527.214 1103.78 526.393C1103.78 525.572 1103.46 524.784 1102.88 524.203C1102.29 523.623 1101.51 523.296 1100.69 523.296C1099.87 523.296 1099.08 523.623 1098.5 524.203C1097.92 524.784 1097.59 525.572 1097.59 526.393V526.393Z" stroke="#1C538E"/>
<path d="M1168.75 24.7715L1156.38 37.1572L1168.75 24.7715Z" stroke="#1C538E"/>
<path d="M1157.41 92.8929C1157.41 94.2616 1157.95 95.5742 1158.92 96.5421C1159.88 97.5099 1161.19 98.0536 1162.56 98.0536C1163.93 98.0536 1165.24 97.5099 1166.21 96.5421C1167.18 95.5742 1167.72 94.2616 1167.72 92.8929C1167.72 91.5242 1167.18 90.2115 1166.21 89.2437C1165.24 88.2759 1163.93 87.7322 1162.56 87.7322C1161.19 87.7322 1159.88 88.2759 1158.92 89.2437C1157.95 90.2115 1157.41 91.5242 1157.41 92.8929V92.8929Z" stroke="#1C538E"/>
<path d="M1168.75 148.629L1156.38 161.014L1168.75 148.629Z" stroke="#1C538E"/>
<path d="M1164.62 214.686L1160.5 218.814L1164.62 214.686Z" stroke="#1C538E"/>
<path d="M1168.75 272.486L1156.38 284.872L1168.75 272.486Z" stroke="#1C538E"/>
<path d="M1164.62 338.543L1160.5 342.672L1164.62 338.543Z" stroke="#1C538E"/>
<path d="M1168.75 396.343L1156.38 408.728L1168.75 396.343Z" stroke="#1C538E"/>
<path d="M1168.75 458.271L1156.38 470.657L1168.75 458.271Z" stroke="#1C538E"/>
<path d="M1164.62 524.329L1160.5 528.457L1164.62 524.329Z" stroke="#1C538E"/>
<path d="M1219.28 30.9642C1219.28 32.3329 1219.82 33.6455 1220.79 34.6134C1221.76 35.5812 1223.07 36.1249 1224.44 36.1249C1225.81 36.1249 1227.12 35.5812 1228.08 34.6134C1229.05 33.6455 1229.59 32.3329 1229.59 30.9642C1229.59 29.5955 1229.05 28.2828 1228.08 27.315C1227.12 26.3472 1225.81 25.8035 1224.44 25.8035C1223.07 25.8035 1221.76 26.3472 1220.79 27.315C1219.82 28.2828 1219.28 29.5955 1219.28 30.9642V30.9642Z" stroke="#1C538E"/>
<path d="M1226.5 90.8286L1222.38 94.9572L1226.5 90.8286Z" stroke="#1C538E"/>
<path d="M1219.28 154.821C1219.28 156.19 1219.82 157.503 1220.79 158.471C1221.76 159.438 1223.07 159.982 1224.44 159.982C1225.81 159.982 1227.12 159.438 1228.08 158.471C1229.05 157.503 1229.59 156.19 1229.59 154.821C1229.59 153.453 1229.05 152.14 1228.08 151.172C1227.12 150.204 1225.81 149.661 1224.44 149.661C1223.07 149.661 1221.76 150.204 1220.79 151.172C1219.82 152.14 1219.28 153.453 1219.28 154.821V154.821Z" stroke="#1C538E"/>
<path d="M1226.5 214.686L1222.38 218.814L1226.5 214.686Z" stroke="#1C538E"/>
<path d="M1230.62 272.486L1218.25 284.872L1230.62 272.486Z" stroke="#1C538E"/>
<path d="M1219.28 340.607C1219.28 341.976 1219.82 343.289 1220.79 344.256C1221.76 345.224 1223.07 345.768 1224.44 345.768C1225.81 345.768 1227.12 345.224 1228.08 344.256C1229.05 343.289 1229.59 341.976 1229.59 340.607C1229.59 339.239 1229.05 337.926 1228.08 336.958C1227.12 335.99 1225.81 335.447 1224.44 335.447C1223.07 335.447 1221.76 335.99 1220.79 336.958C1219.82 337.926 1219.28 339.239 1219.28 340.607V340.607Z" stroke="#1C538E"/>
<path d="M1219.28 402.536C1219.28 403.904 1219.82 405.217 1220.79 406.185C1221.76 407.153 1223.07 407.696 1224.44 407.696C1225.81 407.696 1227.12 407.153 1228.08 406.185C1229.05 405.217 1229.59 403.904 1229.59 402.536C1229.59 401.167 1229.05 399.854 1228.08 398.887C1227.12 397.919 1225.81 397.375 1224.44 397.375C1223.07 397.375 1221.76 397.919 1220.79 398.887C1219.82 399.854 1219.28 401.167 1219.28 402.536V402.536Z" stroke="#1C538E"/>
<path d="M1221.34 464.464C1221.34 465.286 1221.67 466.073 1222.25 466.654C1222.83 467.235 1223.62 467.561 1224.44 467.561C1225.26 467.561 1226.04 467.235 1226.63 466.654C1227.21 466.073 1227.53 465.286 1227.53 464.464C1227.53 463.643 1227.21 462.856 1226.63 462.275C1226.04 461.694 1225.26 461.368 1224.44 461.368C1223.62 461.368 1222.83 461.694 1222.25 462.275C1221.67 462.856 1221.34 463.643 1221.34 464.464V464.464Z" stroke="#1C538E"/>
<path d="M1230.62 520.2L1218.25 532.586L1230.62 520.2Z" stroke="#1C538E"/>
<path d="M1281.16 30.9642C1281.16 32.3329 1281.7 33.6455 1282.67 34.6134C1283.63 35.5812 1284.94 36.1249 1286.31 36.1249C1287.68 36.1249 1288.99 35.5812 1289.96 34.6134C1290.93 33.6455 1291.47 32.3329 1291.47 30.9642C1291.47 29.5955 1290.93 28.2828 1289.96 27.315C1288.99 26.3472 1287.68 25.8035 1286.31 25.8035C1284.94 25.8035 1283.63 26.3472 1282.67 27.315C1281.7 28.2828 1281.16 29.5955 1281.16 30.9642V30.9642Z" stroke="#1C538E"/>
<path d="M1292.5 86.7L1280.12 99.0857L1292.5 86.7Z" stroke="#1C538E"/>
<path d="M1317.25 123.857L1255.38 185.786L1317.25 123.857Z" stroke="#1C538E" stroke-width="3"/>
<path d="M1292.5 210.557L1280.12 222.943L1292.5 210.557Z" stroke="#1C538E"/>
<path d="M1281.16 278.679C1281.16 280.047 1281.7 281.36 1282.67 282.328C1283.63 283.296 1284.94 283.839 1286.31 283.839C1287.68 283.839 1288.99 283.296 1289.96 282.328C1290.93 281.36 1291.47 280.047 1291.47 278.679C1291.47 277.31 1290.93 275.997 1289.96 275.029C1288.99 274.062 1287.68 273.518 1286.31 273.518C1284.94 273.518 1283.63 274.062 1282.67 275.029C1281.7 275.997 1281.16 277.31 1281.16 278.679V278.679Z" stroke="#1C538E"/>
<path d="M1292.5 334.414L1280.12 346.8L1292.5 334.414Z" stroke="#1C538E"/>
<path d="M1288.38 400.471L1284.25 404.6L1288.38 400.471Z" stroke="#1C538E"/>
<path d="M1281.16 464.464C1281.16 465.833 1281.7 467.146 1282.67 468.113C1283.63 469.081 1284.94 469.625 1286.31 469.625C1287.68 469.625 1288.99 469.081 1289.96 468.113C1290.93 467.146 1291.47 465.833 1291.47 464.464C1291.47 463.095 1290.93 461.783 1289.96 460.815C1288.99 459.847 1287.68 459.303 1286.31 459.303C1284.94 459.303 1283.63 459.847 1282.67 460.815C1281.7 461.783 1281.16 463.095 1281.16 464.464V464.464Z" stroke="#1C538E"/>
<path d="M1292.5 520.2L1280.12 532.586L1292.5 520.2Z" stroke="#1C538E"/>
<path d="M1354.38 24.7715L1342 37.1572L1354.38 24.7715Z" stroke="#1C538E"/>
<path d="M1343.03 92.8929C1343.03 94.2616 1343.57 95.5742 1344.54 96.5421C1345.51 97.5099 1346.82 98.0536 1348.19 98.0536C1349.56 98.0536 1350.87 97.5099 1351.83 96.5421C1352.8 95.5742 1353.34 94.2616 1353.34 92.8929C1353.34 91.5242 1352.8 90.2115 1351.83 89.2437C1350.87 88.2759 1349.56 87.7322 1348.19 87.7322C1346.82 87.7322 1345.51 88.2759 1344.54 89.2437C1343.57 90.2115 1343.03 91.5242 1343.03 92.8929V92.8929Z" stroke="#1C538E"/>
<path d="M1343.03 154.821C1343.03 156.19 1343.57 157.503 1344.54 158.471C1345.51 159.438 1346.82 159.982 1348.19 159.982C1349.56 159.982 1350.87 159.438 1351.83 158.471C1352.8 157.503 1353.34 156.19 1353.34 154.821C1353.34 153.453 1352.8 152.14 1351.83 151.172C1350.87 150.204 1349.56 149.661 1348.19 149.661C1346.82 149.661 1345.51 150.204 1344.54 151.172C1343.57 152.14 1343.03 153.453 1343.03 154.821V154.821Z" stroke="#1C538E"/>
<path d="M1345.09 216.75C1345.09 217.571 1345.42 218.359 1346 218.939C1346.58 219.52 1347.37 219.846 1348.19 219.846C1349.01 219.846 1349.79 219.52 1350.38 218.939C1350.96 218.359 1351.28 217.571 1351.28 216.75C1351.28 215.929 1350.96 215.141 1350.38 214.56C1349.79 213.98 1349.01 213.654 1348.19 213.654C1347.37 213.654 1346.58 213.98 1346 214.56C1345.42 215.141 1345.09 215.929 1345.09 216.75V216.75Z" stroke="#1C538E"/>
<path d="M1347.16 278.679C1347.16 278.952 1347.26 279.215 1347.46 279.408C1347.65 279.602 1347.91 279.711 1348.19 279.711C1348.46 279.711 1348.72 279.602 1348.92 279.408C1349.11 279.215 1349.22 278.952 1349.22 278.679C1349.22 278.405 1349.11 278.142 1348.92 277.949C1348.72 277.755 1348.46 277.646 1348.19 277.646C1347.91 277.646 1347.65 277.755 1347.46 277.949C1347.26 278.142 1347.16 278.405 1347.16 278.679V278.679Z" stroke="#1C538E"/>
<path d="M1354.38 334.414L1342 346.8L1354.38 334.414Z" stroke="#1C538E"/>
<path d="M1354.38 396.343L1342 408.728L1354.38 396.343Z" stroke="#1C538E"/>
<path d="M1347.16 464.464C1347.16 464.738 1347.26 465.001 1347.46 465.194C1347.65 465.388 1347.91 465.496 1348.19 465.496C1348.46 465.496 1348.72 465.388 1348.92 465.194C1349.11 465.001 1349.22 464.738 1349.22 464.464C1349.22 464.191 1349.11 463.928 1348.92 463.734C1348.72 463.541 1348.46 463.432 1348.19 463.432C1347.91 463.432 1347.65 463.541 1347.46 463.734C1347.26 463.928 1347.16 464.191 1347.16 464.464V464.464Z" stroke="#1C538E"/>
<path d="M1347.16 526.393C1347.16 526.667 1347.26 526.929 1347.46 527.123C1347.65 527.316 1347.91 527.425 1348.19 527.425C1348.46 527.425 1348.72 527.316 1348.92 527.123C1349.11 526.929 1349.22 526.667 1349.22 526.393C1349.22 526.119 1349.11 525.857 1348.92 525.663C1348.72 525.47 1348.46 525.361 1348.19 525.361C1347.91 525.361 1347.65 525.47 1347.46 525.663C1347.26 525.857 1347.16 526.119 1347.16 526.393V526.393Z" stroke="#1C538E"/>
<path d="M1404.91 30.9642C1404.91 32.3329 1405.45 33.6455 1406.42 34.6134C1407.38 35.5812 1408.69 36.1249 1410.06 36.1249C1411.43 36.1249 1412.74 35.5812 1413.71 34.6134C1414.68 33.6455 1415.22 32.3329 1415.22 30.9642C1415.22 29.5955 1414.68 28.2828 1413.71 27.315C1412.74 26.3472 1411.43 25.8035 1410.06 25.8035C1408.69 25.8035 1407.38 26.3472 1406.42 27.315C1405.45 28.2828 1404.91 29.5955 1404.91 30.9642V30.9642Z" stroke="#1C538E"/>
<path d="M1412.12 90.8286L1408 94.9572L1412.12 90.8286Z" stroke="#1C538E"/>
<path d="M1412.12 152.757L1408 156.886L1412.12 152.757Z" stroke="#1C538E"/>
<path d="M1409.03 216.75C1409.03 217.024 1409.14 217.286 1409.33 217.48C1409.53 217.673 1409.79 217.782 1410.06 217.782C1410.34 217.782 1410.6 217.673 1410.79 217.48C1410.99 217.286 1411.09 217.024 1411.09 216.75C1411.09 216.476 1410.99 216.214 1410.79 216.02C1410.6 215.827 1410.34 215.718 1410.06 215.718C1409.79 215.718 1409.53 215.827 1409.33 216.02C1409.14 216.214 1409.03 216.476 1409.03 216.75V216.75Z" stroke="#1C538E"/>
<path d="M1412.12 276.614L1408 280.743L1412.12 276.614Z" stroke="#1C538E"/>
<path d="M1406.97 340.607C1406.97 341.428 1407.29 342.216 1407.87 342.797C1408.46 343.377 1409.24 343.704 1410.06 343.704C1410.88 343.704 1411.67 343.377 1412.25 342.797C1412.83 342.216 1413.16 341.428 1413.16 340.607C1413.16 339.786 1412.83 338.998 1412.25 338.418C1411.67 337.837 1410.88 337.511 1410.06 337.511C1409.24 337.511 1408.46 337.837 1407.87 338.418C1407.29 338.998 1406.97 339.786 1406.97 340.607V340.607Z" stroke="#1C538E"/>
<path d="M1412.12 400.471L1408 404.6L1412.12 400.471Z" stroke="#1C538E"/>
<path d="M1416.25 458.271L1403.88 470.657L1416.25 458.271Z" stroke="#1C538E"/>
<path d="M1404.91 526.393C1404.91 527.762 1405.45 529.074 1406.42 530.042C1407.38 531.01 1408.69 531.554 1410.06 531.554C1411.43 531.554 1412.74 531.01 1413.71 530.042C1414.68 529.074 1415.22 527.762 1415.22 526.393C1415.22 525.024 1414.68 523.712 1413.71 522.744C1412.74 521.776 1411.43 521.232 1410.06 521.232C1408.69 521.232 1407.38 521.776 1406.42 522.744C1405.45 523.712 1404.91 525.024 1404.91 526.393V526.393Z" stroke="#1C538E"/>
</g>
</g>
<g clip-path="url(#clip1_274_1341)">
<mask id="mask1_274_1341" style="mask-type:luminance" maskUnits="userSpaceOnUse" x="-44" y="497" width="1485" height="578">
<path d="M1441 497H-44V1075H1441V497Z" fill="white"/>
</mask>
<g mask="url(#mask1_274_1341)">
<path d="M55 521.771L42.625 534.157L55 521.771Z" stroke="#1C538E"/>
<path d="M47.7812 589.893C47.7812 590.167 47.8899 590.429 48.0833 590.623C48.2767 590.816 48.539 590.925 48.8125 590.925C49.086 590.925 49.3483 590.816 49.5417 590.623C49.7351 590.429 49.8438 590.167 49.8438 589.893C49.8438 589.619 49.7351 589.357 49.5417 589.163C49.3483 588.97 49.086 588.861 48.8125 588.861C48.539 588.861 48.2767 588.97 48.0833 589.163C47.8899 589.357 47.7812 589.619 47.7812 589.893V589.893Z" stroke="#1C538E"/>
<path d="M45.7188 651.822C45.7188 652.643 46.0447 653.43 46.6249 654.011C47.2051 654.592 47.992 654.918 48.8125 654.918C49.633 654.918 50.4199 654.592 51.0001 654.011C51.5803 653.43 51.9062 652.643 51.9062 651.822C51.9062 651 51.5803 650.213 51.0001 649.632C50.4199 649.051 49.633 648.725 48.8125 648.725C47.992 648.725 47.2051 649.051 46.6249 649.632C46.0447 650.213 45.7188 651 45.7188 651.822V651.822Z" stroke="#1C538E"/>
<path d="M43.6562 713.75C43.6562 715.119 44.1995 716.431 45.1665 717.399C46.1335 718.367 47.445 718.911 48.8125 718.911C50.18 718.911 51.4915 718.367 52.4585 717.399C53.4255 716.431 53.9688 715.119 53.9688 713.75C53.9688 712.381 53.4255 711.069 52.4585 710.101C51.4915 709.133 50.18 708.589 48.8125 708.589C47.445 708.589 46.1335 709.133 45.1665 710.101C44.1995 711.069 43.6562 712.381 43.6562 713.75V713.75Z" stroke="#1C538E"/>
<path d="M43.6562 775.679C43.6562 777.047 44.1995 778.36 45.1665 779.328C46.1335 780.296 47.445 780.839 48.8125 780.839C50.18 780.839 51.4915 780.296 52.4585 779.328C53.4255 778.36 53.9688 777.047 53.9688 775.679C53.9688 774.31 53.4255 772.997 52.4585 772.029C51.4915 771.062 50.18 770.518 48.8125 770.518C47.445 770.518 46.1335 771.062 45.1665 772.029C44.1995 772.997 43.6562 774.31 43.6562 775.679V775.679Z" stroke="#1C538E"/>
<path d="M50.875 835.543L46.75 839.672L50.875 835.543Z" stroke="#1C538E"/>
<path d="M50.875 897.471L46.75 901.6L50.875 897.471Z" stroke="#1C538E"/>
<path d="M50.875 959.4L46.75 963.528L50.875 959.4Z" stroke="#1C538E"/>
<path d="M55 1017.2L42.625 1029.59L55 1017.2Z" stroke="#1C538E"/>
<path d="M105.531 527.964C105.531 529.333 106.074 530.646 107.041 531.613C108.008 532.581 109.32 533.125 110.688 533.125C112.055 533.125 113.367 532.581 114.334 531.613C115.301 530.646 115.844 529.333 115.844 527.964C115.844 526.595 115.301 525.283 114.334 524.315C113.367 523.347 112.055 522.803 110.688 522.803C109.32 522.803 108.008 523.347 107.041 524.315C106.074 525.283 105.531 526.595 105.531 527.964V527.964Z" stroke="#1C538E"/>
<path d="M116.875 583.7L104.5 596.086L116.875 583.7Z" stroke="#1C538E"/>
<path d="M109.656 651.821C109.656 652.095 109.765 652.358 109.958 652.551C110.152 652.745 110.414 652.854 110.688 652.854C110.961 652.854 111.223 652.745 111.417 652.551C111.61 652.358 111.719 652.095 111.719 651.821C111.719 651.548 111.61 651.285 111.417 651.092C111.223 650.898 110.961 650.789 110.688 650.789C110.414 650.789 110.152 650.898 109.958 651.092C109.765 651.285 109.656 651.548 109.656 651.821V651.821Z" stroke="#1C538E"/>
<path d="M116.875 707.557L104.5 719.943L116.875 707.557Z" stroke="#1C538E"/>
<path d="M116.875 769.486L104.5 781.872L116.875 769.486Z" stroke="#1C538E"/>
<path d="M105.531 837.607C105.531 838.976 106.074 840.289 107.041 841.256C108.008 842.224 109.32 842.768 110.688 842.768C112.055 842.768 113.367 842.224 114.334 841.256C115.301 840.289 115.844 838.976 115.844 837.607C115.844 836.239 115.301 834.926 114.334 833.958C113.367 832.99 112.055 832.447 110.688 832.447C109.32 832.447 108.008 832.99 107.041 833.958C106.074 834.926 105.531 836.239 105.531 837.607V837.607Z" stroke="#1C538E"/>
<path d="M112.75 897.471L108.625 901.6L112.75 897.471Z" stroke="#1C538E"/>
<path d="M116.875 955.271L104.5 967.657L116.875 955.271Z" stroke="#1C538E"/>
<path d="M105.531 1023.39C105.531 1024.76 106.074 1026.07 107.041 1027.04C108.008 1028.01 109.32 1028.55 110.688 1028.55C112.055 1028.55 113.367 1028.01 114.334 1027.04C115.301 1026.07 115.844 1024.76 115.844 1023.39C115.844 1022.02 115.301 1020.71 114.334 1019.74C113.367 1018.78 112.055 1018.23 110.688 1018.23C109.32 1018.23 108.008 1018.78 107.041 1019.74C106.074 1020.71 105.531 1022.02 105.531 1023.39V1023.39Z" stroke="#1C538E"/>
<path d="M167.406 527.964C167.406 529.333 167.949 530.646 168.916 531.613C169.883 532.581 171.195 533.125 172.562 533.125C173.93 533.125 175.242 532.581 176.209 531.613C177.176 530.646 177.719 529.333 177.719 527.964C177.719 526.595 177.176 525.283 176.209 524.315C175.242 523.347 173.93 522.803 172.562 522.803C171.195 522.803 169.883 523.347 168.916 524.315C167.949 525.283 167.406 526.595 167.406 527.964V527.964Z" stroke="#1C538E"/>
<path d="M178.75 583.7L166.375 596.086L178.75 583.7Z" stroke="#1C538E"/>
<path d="M174.625 649.757L170.5 653.886L174.625 649.757Z" stroke="#1C538E"/>
<path d="M169.469 713.75C169.469 714.571 169.795 715.359 170.375 715.939C170.955 716.52 171.742 716.846 172.562 716.846C173.383 716.846 174.17 716.52 174.75 715.939C175.33 715.359 175.656 714.571 175.656 713.75C175.656 712.929 175.33 712.141 174.75 711.56C174.17 710.98 173.383 710.654 172.562 710.654C171.742 710.654 170.955 710.98 170.375 711.56C169.795 712.141 169.469 712.929 169.469 713.75V713.75Z" stroke="#1C538E"/>
<path d="M178.75 769.486L166.375 781.872L178.75 769.486Z" stroke="#1C538E"/>
<path d="M178.75 831.414L166.375 843.8L178.75 831.414Z" stroke="#1C538E"/>
<path d="M174.625 897.471L170.5 901.6L174.625 897.471Z" stroke="#1C538E"/>
<path d="M174.625 959.4L170.5 963.528L174.625 959.4Z" stroke="#1C538E"/>
<path d="M178.75 1017.2L166.375 1029.59L178.75 1017.2Z" stroke="#1C538E"/>
<path d="M236.5 525.9L232.375 530.028L236.5 525.9Z" stroke="#1C538E"/>
<path d="M229.281 589.893C229.281 591.262 229.824 592.574 230.791 593.542C231.758 594.51 233.07 595.054 234.438 595.054C235.805 595.054 237.117 594.51 238.084 593.542C239.051 592.574 239.594 591.262 239.594 589.893C239.594 588.524 239.051 587.212 238.084 586.244C237.117 585.276 235.805 584.732 234.438 584.732C233.07 584.732 231.758 585.276 230.791 586.244C229.824 587.212 229.281 588.524 229.281 589.893V589.893Z" stroke="#1C538E"/>
<path d="M236.5 649.757L232.375 653.886L236.5 649.757Z" stroke="#1C538E"/>
<path d="M240.625 707.557L228.25 719.943L240.625 707.557Z" stroke="#1C538E"/>
<path d="M265.375 744.714L203.5 806.643L265.375 744.714Z" stroke="#1C538E" stroke-width="3"/>
<path d="M231.344 837.607C231.344 838.428 231.67 839.216 232.25 839.797C232.83 840.377 233.617 840.704 234.438 840.704C235.258 840.704 236.045 840.377 236.625 839.797C237.205 839.216 237.531 838.428 237.531 837.607C237.531 836.786 237.205 835.998 236.625 835.418C236.045 834.837 235.258 834.511 234.438 834.511C233.617 834.511 232.83 834.837 232.25 835.418C231.67 835.998 231.344 836.786 231.344 837.607V837.607Z" stroke="#1C538E"/>
<path d="M240.625 893.343L228.25 905.728L240.625 893.343Z" stroke="#1C538E"/>
<path d="M233.406 961.464C233.406 961.738 233.515 962.001 233.708 962.194C233.902 962.388 234.164 962.496 234.438 962.496C234.711 962.496 234.973 962.388 235.167 962.194C235.36 962.001 235.469 961.738 235.469 961.464C235.469 961.191 235.36 960.928 235.167 960.734C234.973 960.541 234.711 960.432 234.438 960.432C234.164 960.432 233.902 960.541 233.708 960.734C233.515 960.928 233.406 961.191 233.406 961.464V961.464Z" stroke="#1C538E"/>
<path d="M265.375 992.429L203.5 1054.36L265.375 992.429Z" stroke="#1C538E" stroke-width="3"/>
<path d="M302.5 521.771L290.125 534.157L302.5 521.771Z" stroke="#1C538E"/>
<path d="M291.156 589.893C291.156 591.262 291.699 592.574 292.666 593.542C293.633 594.51 294.945 595.054 296.312 595.054C297.68 595.054 298.992 594.51 299.959 593.542C300.926 592.574 301.469 591.262 301.469 589.893C301.469 588.524 300.926 587.212 299.959 586.244C298.992 585.276 297.68 584.732 296.312 584.732C294.945 584.732 293.633 585.276 292.666 586.244C291.699 587.212 291.156 588.524 291.156 589.893V589.893Z" stroke="#1C538E"/>
<path d="M291.156 651.821C291.156 653.19 291.699 654.503 292.666 655.471C293.633 656.438 294.945 656.982 296.312 656.982C297.68 656.982 298.992 656.438 299.959 655.471C300.926 654.503 301.469 653.19 301.469 651.821C301.469 650.453 300.926 649.14 299.959 648.172C298.992 647.204 297.68 646.661 296.312 646.661C294.945 646.661 293.633 647.204 292.666 648.172C291.699 649.14 291.156 650.453 291.156 651.821V651.821Z" stroke="#1C538E"/>
<path d="M291.156 713.75C291.156 715.119 291.699 716.431 292.666 717.399C293.633 718.367 294.945 718.911 296.312 718.911C297.68 718.911 298.992 718.367 299.959 717.399C300.926 716.431 301.469 715.119 301.469 713.75C301.469 712.381 300.926 711.069 299.959 710.101C298.992 709.133 297.68 708.589 296.312 708.589C294.945 708.589 293.633 709.133 292.666 710.101C291.699 711.069 291.156 712.381 291.156 713.75V713.75Z" stroke="#1C538E"/>
<path d="M302.5 769.486L290.125 781.872L302.5 769.486Z" stroke="#1C538E"/>
<path d="M302.5 831.414L290.125 843.8L302.5 831.414Z" stroke="#1C538E"/>
<path d="M291.156 899.536C291.156 900.904 291.699 902.217 292.666 903.185C293.633 904.153 294.945 904.696 296.312 904.696C297.68 904.696 298.992 904.153 299.959 903.185C300.926 902.217 301.469 900.904 301.469 899.536C301.469 898.167 300.926 896.854 299.959 895.887C298.992 894.919 297.68 894.375 296.312 894.375C294.945 894.375 293.633 894.919 292.666 895.887C291.699 896.854 291.156 898.167 291.156 899.536V899.536Z" stroke="#1C538E"/>
<path d="M291.156 961.464C291.156 962.833 291.699 964.146 292.666 965.113C293.633 966.081 294.945 966.625 296.312 966.625C297.68 966.625 298.992 966.081 299.959 965.113C300.926 964.146 301.469 962.833 301.469 961.464C301.469 960.095 300.926 958.783 299.959 957.815C298.992 956.847 297.68 956.303 296.312 956.303C294.945 956.303 293.633 956.847 292.666 957.815C291.699 958.783 291.156 960.095 291.156 961.464V961.464Z" stroke="#1C538E"/>
<path d="M298.375 1021.33L294.25 1025.46L298.375 1021.33Z" stroke="#1C538E"/>
<path d="M389.125 497L327.25 558.929L389.125 497Z" stroke="#1C538E" stroke-width="3"/>
<path d="M360.25 587.829L356.125 591.957L360.25 587.829Z" stroke="#1C538E"/>
<path d="M353.031 651.821C353.031 653.19 353.574 654.503 354.541 655.471C355.508 656.438 356.82 656.982 358.188 656.982C359.555 656.982 360.867 656.438 361.834 655.471C362.801 654.503 363.344 653.19 363.344 651.821C363.344 650.453 362.801 649.14 361.834 648.172C360.867 647.204 359.555 646.661 358.188 646.661C356.82 646.661 355.508 647.204 354.541 648.172C353.574 649.14 353.031 650.453 353.031 651.821V651.821Z" stroke="#1C538E"/>
<path d="M364.375 707.557L352 719.943L364.375 707.557Z" stroke="#1C538E"/>
<path d="M353.031 775.679C353.031 777.047 353.574 778.36 354.541 779.328C355.508 780.296 356.82 780.839 358.188 780.839C359.555 780.839 360.867 780.296 361.834 779.328C362.801 778.36 363.344 777.047 363.344 775.679C363.344 774.31 362.801 772.997 361.834 772.029C360.867 771.062 359.555 770.518 358.188 770.518C356.82 770.518 355.508 771.062 354.541 772.029C353.574 772.997 353.031 774.31 353.031 775.679V775.679Z" stroke="#1C538E"/>
<path d="M353.031 837.607C353.031 838.976 353.574 840.289 354.541 841.256C355.508 842.224 356.82 842.768 358.188 842.768C359.555 842.768 360.867 842.224 361.834 841.256C362.801 840.289 363.344 838.976 363.344 837.607C363.344 836.239 362.801 834.926 361.834 833.958C360.867 832.99 359.555 832.447 358.188 832.447C356.82 832.447 355.508 832.99 354.541 833.958C353.574 834.926 353.031 836.239 353.031 837.607V837.607Z" stroke="#1C538E"/>
<path d="M364.375 893.343L352 905.728L364.375 893.343Z" stroke="#1C538E"/>
<path d="M355.094 961.464C355.094 962.286 355.42 963.073 356 963.654C356.58 964.235 357.367 964.561 358.188 964.561C359.008 964.561 359.795 964.235 360.375 963.654C360.955 963.073 361.281 962.286 361.281 961.464C361.281 960.643 360.955 959.856 360.375 959.275C359.795 958.694 359.008 958.368 358.188 958.368C357.367 958.368 356.58 958.694 356 959.275C355.42 959.856 355.094 960.643 355.094 961.464V961.464Z" stroke="#1C538E"/>
<path d="M355.094 1023.39C355.094 1024.21 355.42 1025 356 1025.58C356.58 1026.16 357.367 1026.49 358.188 1026.49C359.008 1026.49 359.795 1026.16 360.375 1025.58C360.955 1025 361.281 1024.21 361.281 1023.39C361.281 1022.57 360.955 1021.78 360.375 1021.2C359.795 1020.62 359.008 1020.3 358.188 1020.3C357.367 1020.3 356.58 1020.62 356 1021.2C355.42 1021.78 355.094 1022.57 355.094 1023.39V1023.39Z" stroke="#1C538E"/>
<path d="M426.25 521.771L413.875 534.157L426.25 521.771Z" stroke="#1C538E"/>
<path d="M414.906 589.893C414.906 591.262 415.449 592.574 416.416 593.542C417.383 594.51 418.695 595.054 420.062 595.054C421.43 595.054 422.742 594.51 423.709 593.542C424.676 592.574 425.219 591.262 425.219 589.893C425.219 588.524 424.676 587.212 423.709 586.244C422.742 585.276 421.43 584.732 420.062 584.732C418.695 584.732 417.383 585.276 416.416 586.244C415.449 587.212 414.906 588.524 414.906 589.893V589.893Z" stroke="#1C538E"/>
<path d="M426.25 645.629L413.875 658.014L426.25 645.629Z" stroke="#1C538E"/>
<path d="M422.125 711.686L418 715.814L422.125 711.686Z" stroke="#1C538E"/>
<path d="M426.25 769.486L413.875 781.872L426.25 769.486Z" stroke="#1C538E"/>
<path d="M422.125 835.543L418 839.672L422.125 835.543Z" stroke="#1C538E"/>
<path d="M426.25 893.343L413.875 905.728L426.25 893.343Z" stroke="#1C538E"/>
<path d="M426.25 955.271L413.875 967.657L426.25 955.271Z" stroke="#1C538E"/>
<path d="M422.125 1021.33L418 1025.46L422.125 1021.33Z" stroke="#1C538E"/>
<path d="M476.781 527.964C476.781 529.333 477.324 530.646 478.291 531.613C479.258 532.581 480.57 533.125 481.938 533.125C483.305 533.125 484.617 532.581 485.584 531.613C486.551 530.646 487.094 529.333 487.094 527.964C487.094 526.595 486.551 525.283 485.584 524.315C484.617 523.347 483.305 522.803 481.938 522.803C480.57 522.803 479.258 523.347 478.291 524.315C477.324 525.283 476.781 526.595 476.781 527.964V527.964Z" stroke="#1C538E"/>
<path d="M484 587.829L479.875 591.957L484 587.829Z" stroke="#1C538E"/>
<path d="M476.781 651.821C476.781 653.19 477.324 654.503 478.291 655.471C479.258 656.438 480.57 656.982 481.938 656.982C483.305 656.982 484.617 656.438 485.584 655.471C486.551 654.503 487.094 653.19 487.094 651.821C487.094 650.453 486.551 649.14 485.584 648.172C484.617 647.204 483.305 646.661 481.938 646.661C480.57 646.661 479.258 647.204 478.291 648.172C477.324 649.14 476.781 650.453 476.781 651.821V651.821Z" stroke="#1C538E"/>
<path d="M484 711.686L479.875 715.814L484 711.686Z" stroke="#1C538E"/>
<path d="M488.125 769.486L475.75 781.872L488.125 769.486Z" stroke="#1C538E"/>
<path d="M476.781 837.607C476.781 838.976 477.324 840.289 478.291 841.256C479.258 842.224 480.57 842.768 481.938 842.768C483.305 842.768 484.617 842.224 485.584 841.256C486.551 840.289 487.094 838.976 487.094 837.607C487.094 836.239 486.551 834.926 485.584 833.958C484.617 832.99 483.305 832.447 481.938 832.447C480.57 832.447 479.258 832.99 478.291 833.958C477.324 834.926 476.781 836.239 476.781 837.607V837.607Z" stroke="#1C538E"/>
<path d="M476.781 899.536C476.781 900.904 477.324 902.217 478.291 903.185C479.258 904.153 480.57 904.696 481.938 904.696C483.305 904.696 484.617 904.153 485.584 903.185C486.551 902.217 487.094 900.904 487.094 899.536C487.094 898.167 486.551 896.854 485.584 895.887C484.617 894.919 483.305 894.375 481.938 894.375C480.57 894.375 479.258 894.919 478.291 895.887C477.324 896.854 476.781 898.167 476.781 899.536V899.536Z" stroke="#1C538E"/>
<path d="M478.844 961.464C478.844 962.286 479.17 963.073 479.75 963.654C480.33 964.235 481.117 964.561 481.938 964.561C482.758 964.561 483.545 964.235 484.125 963.654C484.705 963.073 485.031 962.286 485.031 961.464C485.031 960.643 484.705 959.856 484.125 959.275C483.545 958.694 482.758 958.368 481.938 958.368C481.117 958.368 480.33 958.694 479.75 959.275C479.17 959.856 478.844 960.643 478.844 961.464V961.464Z" stroke="#1C538E"/>
<path d="M488.125 1017.2L475.75 1029.59L488.125 1017.2Z" stroke="#1C538E"/>
<path d="M538.656 527.964C538.656 529.333 539.199 530.646 540.166 531.613C541.133 532.581 542.445 533.125 543.812 533.125C545.18 533.125 546.492 532.581 547.459 531.613C548.426 530.646 548.969 529.333 548.969 527.964C548.969 526.595 548.426 525.283 547.459 524.315C546.492 523.347 545.18 522.803 543.812 522.803C542.445 522.803 541.133 523.347 540.166 524.315C539.199 525.283 538.656 526.595 538.656 527.964V527.964Z" stroke="#1C538E"/>
<path d="M550 583.7L537.625 596.086L550 583.7Z" stroke="#1C538E"/>
<path d="M574.75 620.857L512.875 682.786L574.75 620.857Z" stroke="#1C538E" stroke-width="3"/>
<path d="M550 707.557L537.625 719.943L550 707.557Z" stroke="#1C538E"/>
<path d="M538.656 775.679C538.656 777.047 539.199 778.36 540.166 779.328C541.133 780.296 542.445 780.839 543.812 780.839C545.18 780.839 546.492 780.296 547.459 779.328C548.426 778.36 548.969 777.047 548.969 775.679C548.969 774.31 548.426 772.997 547.459 772.029C546.492 771.062 545.18 770.518 543.812 770.518C542.445 770.518 541.133 771.062 540.166 772.029C539.199 772.997 538.656 774.31 538.656 775.679V775.679Z" stroke="#1C538E"/>
<path d="M550 831.414L537.625 843.8L550 831.414Z" stroke="#1C538E"/>
<path d="M545.875 897.471L541.75 901.6L545.875 897.471Z" stroke="#1C538E"/>
<path d="M538.656 961.464C538.656 962.833 539.199 964.146 540.166 965.113C541.133 966.081 542.445 966.625 543.812 966.625C545.18 966.625 546.492 966.081 547.459 965.113C548.426 964.146 548.969 962.833 548.969 961.464C548.969 960.095 548.426 958.783 547.459 957.815C546.492 956.847 545.18 956.303 543.812 956.303C542.445 956.303 541.133 956.847 540.166 957.815C539.199 958.783 538.656 960.095 538.656 961.464V961.464Z" stroke="#1C538E"/>
<path d="M550 1017.2L537.625 1029.59L550 1017.2Z" stroke="#1C538E"/>
<path d="M611.875 521.771L599.5 534.157L611.875 521.771Z" stroke="#1C538E"/>
<path d="M600.531 589.893C600.531 591.262 601.074 592.574 602.041 593.542C603.008 594.51 604.32 595.054 605.688 595.054C607.055 595.054 608.367 594.51 609.334 593.542C610.301 592.574 610.844 591.262 610.844 589.893C610.844 588.524 610.301 587.212 609.334 586.244C608.367 585.276 607.055 584.732 605.688 584.732C604.32 584.732 603.008 585.276 602.041 586.244C601.074 587.212 600.531 588.524 600.531 589.893V589.893Z" stroke="#1C538E"/>
<path d="M600.531 651.821C600.531 653.19 601.074 654.503 602.041 655.471C603.008 656.438 604.32 656.982 605.688 656.982C607.055 656.982 608.367 656.438 609.334 655.471C610.301 654.503 610.844 653.19 610.844 651.821C610.844 650.453 610.301 649.14 609.334 648.172C608.367 647.204 607.055 646.661 605.688 646.661C604.32 646.661 603.008 647.204 602.041 648.172C601.074 649.14 600.531 650.453 600.531 651.821V651.821Z" stroke="#1C538E"/>
<path d="M602.594 713.75C602.594 714.571 602.92 715.359 603.5 715.939C604.08 716.52 604.867 716.846 605.688 716.846C606.508 716.846 607.295 716.52 607.875 715.939C608.455 715.359 608.781 714.571 608.781 713.75C608.781 712.929 608.455 712.141 607.875 711.56C607.295 710.98 606.508 710.654 605.688 710.654C604.867 710.654 604.08 710.98 603.5 711.56C602.92 712.141 602.594 712.929 602.594 713.75V713.75Z" stroke="#1C538E"/>
<path d="M604.656 775.679C604.656 775.952 604.765 776.215 604.958 776.408C605.152 776.602 605.414 776.711 605.688 776.711C605.961 776.711 606.223 776.602 606.417 776.408C606.61 776.215 606.719 775.952 606.719 775.679C606.719 775.405 606.61 775.142 606.417 774.949C606.223 774.755 605.961 774.646 605.688 774.646C605.414 774.646 605.152 774.755 604.958 774.949C604.765 775.142 604.656 775.405 604.656 775.679V775.679Z" stroke="#1C538E"/>
<path d="M611.875 831.414L599.5 843.8L611.875 831.414Z" stroke="#1C538E"/>
<path d="M611.875 893.343L599.5 905.728L611.875 893.343Z" stroke="#1C538E"/>
<path d="M604.656 961.464C604.656 961.738 604.765 962.001 604.958 962.194C605.152 962.388 605.414 962.496 605.688 962.496C605.961 962.496 606.223 962.388 606.417 962.194C606.61 962.001 606.719 961.738 606.719 961.464C606.719 961.191 606.61 960.928 606.417 960.734C606.223 960.541 605.961 960.432 605.688 960.432C605.414 960.432 605.152 960.541 604.958 960.734C604.765 960.928 604.656 961.191 604.656 961.464V961.464Z" stroke="#1C538E"/>
<path d="M604.656 1023.39C604.656 1023.67 604.765 1023.93 604.958 1024.12C605.152 1024.32 605.414 1024.43 605.688 1024.43C605.961 1024.43 606.223 1024.32 606.417 1024.12C606.61 1023.93 606.719 1023.67 606.719 1023.39C606.719 1023.12 606.61 1022.86 606.417 1022.66C606.223 1022.47 605.961 1022.36 605.688 1022.36C605.414 1022.36 605.152 1022.47 604.958 1022.66C604.765 1022.86 604.656 1023.12 604.656 1023.39V1023.39Z" stroke="#1C538E"/>
<path d="M662.406 527.964C662.406 529.333 662.949 530.646 663.916 531.613C664.883 532.581 666.195 533.125 667.562 533.125C668.93 533.125 670.242 532.581 671.209 531.613C672.176 530.646 672.719 529.333 672.719 527.964C672.719 526.595 672.176 525.283 671.209 524.315C670.242 523.347 668.93 522.803 667.562 522.803C666.195 522.803 664.883 523.347 663.916 524.315C662.949 525.283 662.406 526.595 662.406 527.964V527.964Z" stroke="#1C538E"/>
<path d="M669.625 587.829L665.5 591.957L669.625 587.829Z" stroke="#1C538E"/>
<path d="M669.625 649.757L665.5 653.886L669.625 649.757Z" stroke="#1C538E"/>
<path d="M666.531 713.75C666.531 714.024 666.64 714.286 666.833 714.48C667.027 714.673 667.289 714.782 667.562 714.782C667.836 714.782 668.098 714.673 668.292 714.48C668.485 714.286 668.594 714.024 668.594 713.75C668.594 713.476 668.485 713.214 668.292 713.02C668.098 712.827 667.836 712.718 667.562 712.718C667.289 712.718 667.027 712.827 666.833 713.02C666.64 713.214 666.531 713.476 666.531 713.75V713.75Z" stroke="#1C538E"/>
<path d="M669.625 773.614L665.5 777.743L669.625 773.614Z" stroke="#1C538E"/>
<path d="M664.469 837.607C664.469 838.428 664.795 839.216 665.375 839.797C665.955 840.377 666.742 840.704 667.562 840.704C668.383 840.704 669.17 840.377 669.75 839.797C670.33 839.216 670.656 838.428 670.656 837.607C670.656 836.786 670.33 835.998 669.75 835.418C669.17 834.837 668.383 834.511 667.562 834.511C666.742 834.511 665.955 834.837 665.375 835.418C664.795 835.998 664.469 836.786 664.469 837.607V837.607Z" stroke="#1C538E"/>
<path d="M669.625 897.471L665.5 901.6L669.625 897.471Z" stroke="#1C538E"/>
<path d="M673.75 955.271L661.375 967.657L673.75 955.271Z" stroke="#1C538E"/>
<path d="M662.406 1023.39C662.406 1024.76 662.949 1026.07 663.916 1027.04C664.883 1028.01 666.195 1028.55 667.562 1028.55C668.93 1028.55 670.242 1028.01 671.209 1027.04C672.176 1026.07 672.719 1024.76 672.719 1023.39C672.719 1022.02 672.176 1020.71 671.209 1019.74C670.242 1018.78 668.93 1018.23 667.562 1018.23C666.195 1018.23 664.883 1018.78 663.916 1019.74C662.949 1020.71 662.406 1022.02 662.406 1023.39V1023.39Z" stroke="#1C538E"/>
<path d="M731.5 525.9L727.375 530.028L731.5 525.9Z" stroke="#1C538E"/>
<path d="M735.625 583.7L723.25 596.086L735.625 583.7Z" stroke="#1C538E"/>
<path d="M724.281 651.821C724.281 653.19 724.824 654.503 725.791 655.471C726.758 656.438 728.07 656.982 729.438 656.982C730.805 656.982 732.117 656.438 733.084 655.471C734.051 654.503 734.594 653.19 734.594 651.821C734.594 650.453 734.051 649.14 733.084 648.172C732.117 647.204 730.805 646.661 729.438 646.661C728.07 646.661 726.758 647.204 725.791 648.172C724.824 649.14 724.281 650.453 724.281 651.821V651.821Z" stroke="#1C538E"/>
<path d="M724.281 713.75C724.281 715.119 724.824 716.431 725.791 717.399C726.758 718.367 728.07 718.911 729.438 718.911C730.805 718.911 732.117 718.367 733.084 717.399C734.051 716.431 734.594 715.119 734.594 713.75C734.594 712.381 734.051 711.069 733.084 710.101C732.117 709.133 730.805 708.589 729.438 708.589C728.07 708.589 726.758 709.133 725.791 710.101C724.824 711.069 724.281 712.381 724.281 713.75V713.75Z" stroke="#1C538E"/>
<path d="M724.281 775.679C724.281 777.047 724.824 778.36 725.791 779.328C726.758 780.296 728.07 780.839 729.438 780.839C730.805 780.839 732.117 780.296 733.084 779.328C734.051 778.36 734.594 777.047 734.594 775.679C734.594 774.31 734.051 772.997 733.084 772.029C732.117 771.062 730.805 770.518 729.438 770.518C728.07 770.518 726.758 771.062 725.791 772.029C724.824 772.997 724.281 774.31 724.281 775.679V775.679Z" stroke="#1C538E"/>
<path d="M735.625 831.414L723.25 843.8L735.625 831.414Z" stroke="#1C538E"/>
<path d="M726.344 899.536C726.344 900.357 726.67 901.144 727.25 901.725C727.83 902.306 728.617 902.632 729.438 902.632C730.258 902.632 731.045 902.306 731.625 901.725C732.205 901.144 732.531 900.357 732.531 899.536C732.531 898.714 732.205 897.927 731.625 897.346C731.045 896.765 730.258 896.439 729.438 896.439C728.617 896.439 727.83 896.765 727.25 897.346C726.67 897.927 726.344 898.714 726.344 899.536V899.536Z" stroke="#1C538E"/>
<path d="M724.281 961.464C724.281 962.833 724.824 964.146 725.791 965.113C726.758 966.081 728.07 966.625 729.438 966.625C730.805 966.625 732.117 966.081 733.084 965.113C734.051 964.146 734.594 962.833 734.594 961.464C734.594 960.095 734.051 958.783 733.084 957.815C732.117 956.847 730.805 956.303 729.438 956.303C728.07 956.303 726.758 956.847 725.791 957.815C724.824 958.783 724.281 960.095 724.281 961.464V961.464Z" stroke="#1C538E"/>
<path d="M724.281 1023.39C724.281 1024.76 724.824 1026.07 725.791 1027.04C726.758 1028.01 728.07 1028.55 729.438 1028.55C730.805 1028.55 732.117 1028.01 733.084 1027.04C734.051 1026.07 734.594 1024.76 734.594 1023.39C734.594 1022.02 734.051 1020.71 733.084 1019.74C732.117 1018.78 730.805 1018.23 729.438 1018.23C728.07 1018.23 726.758 1018.78 725.791 1019.74C724.824 1020.71 724.281 1022.02 724.281 1023.39V1023.39Z" stroke="#1C538E"/>
<path d="M797.5 521.771L785.125 534.157L797.5 521.771Z" stroke="#1C538E"/>
<path d="M790.281 589.893C790.281 590.167 790.39 590.429 790.583 590.623C790.777 590.816 791.039 590.925 791.312 590.925C791.586 590.925 791.848 590.816 792.042 590.623C792.235 590.429 792.344 590.167 792.344 589.893C792.344 589.619 792.235 589.357 792.042 589.163C791.848 588.97 791.586 588.861 791.312 588.861C791.039 588.861 790.777 588.97 790.583 589.163C790.39 589.357 790.281 589.619 790.281 589.893V589.893Z" stroke="#1C538E"/>
<path d="M788.219 651.822C788.219 652.643 788.545 653.43 789.125 654.011C789.705 654.592 790.492 654.918 791.312 654.918C792.133 654.918 792.92 654.592 793.5 654.011C794.08 653.43 794.406 652.643 794.406 651.822C794.406 651 794.08 650.213 793.5 649.632C792.92 649.051 792.133 648.725 791.312 648.725C790.492 648.725 789.705 649.051 789.125 649.632C788.545 650.213 788.219 651 788.219 651.822V651.822Z" stroke="#1C538E"/>
<path d="M786.156 713.75C786.156 715.119 786.699 716.431 787.666 717.399C788.633 718.367 789.945 718.911 791.312 718.911C792.68 718.911 793.992 718.367 794.959 717.399C795.926 716.431 796.469 715.119 796.469 713.75C796.469 712.381 795.926 711.069 794.959 710.101C793.992 709.133 792.68 708.589 791.312 708.589C789.945 708.589 788.633 709.133 787.666 710.101C786.699 711.069 786.156 712.381 786.156 713.75V713.75Z" stroke="#1C538E"/>
<path d="M786.156 775.679C786.156 777.047 786.699 778.36 787.666 779.328C788.633 780.296 789.945 780.839 791.312 780.839C792.68 780.839 793.992 780.296 794.959 779.328C795.926 778.36 796.469 777.047 796.469 775.679C796.469 774.31 795.926 772.997 794.959 772.029C793.992 771.062 792.68 770.518 791.312 770.518C789.945 770.518 788.633 771.062 787.666 772.029C786.699 772.997 786.156 774.31 786.156 775.679V775.679Z" stroke="#1C538E"/>
<path d="M793.375 835.543L789.25 839.672L793.375 835.543Z" stroke="#1C538E"/>
<path d="M793.375 897.471L789.25 901.6L793.375 897.471Z" stroke="#1C538E"/>
<path d="M793.375 959.4L789.25 963.528L793.375 959.4Z" stroke="#1C538E"/>
<path d="M797.5 1017.2L785.125 1029.59L797.5 1017.2Z" stroke="#1C538E"/>
<path d="M848.031 527.964C848.031 529.333 848.574 530.646 849.541 531.613C850.508 532.581 851.82 533.125 853.188 533.125C854.555 533.125 855.867 532.581 856.834 531.613C857.801 530.646 858.344 529.333 858.344 527.964C858.344 526.595 857.801 525.283 856.834 524.315C855.867 523.347 854.555 522.803 853.188 522.803C851.82 522.803 850.508 523.347 849.541 524.315C848.574 525.283 848.031 526.595 848.031 527.964V527.964Z" stroke="#1C538E"/>
<path d="M859.375 583.7L847 596.086L859.375 583.7Z" stroke="#1C538E"/>
<path d="M852.156 651.821C852.156 652.095 852.265 652.358 852.458 652.551C852.652 652.745 852.914 652.854 853.188 652.854C853.461 652.854 853.723 652.745 853.917 652.551C854.11 652.358 854.219 652.095 854.219 651.821C854.219 651.548 854.11 651.285 853.917 651.092C853.723 650.898 853.461 650.789 853.188 650.789C852.914 650.789 852.652 650.898 852.458 651.092C852.265 651.285 852.156 651.548 852.156 651.821V651.821Z" stroke="#1C538E"/>
<path d="M859.375 707.557L847 719.943L859.375 707.557Z" stroke="#1C538E"/>
<path d="M859.375 769.486L847 781.872L859.375 769.486Z" stroke="#1C538E"/>
<path d="M848.031 837.607C848.031 838.976 848.574 840.289 849.541 841.256C850.508 842.224 851.82 842.768 853.188 842.768C854.555 842.768 855.867 842.224 856.834 841.256C857.801 840.289 858.344 838.976 858.344 837.607C858.344 836.239 857.801 834.926 856.834 833.958C855.867 832.99 854.555 832.447 853.188 832.447C851.82 832.447 850.508 832.99 849.541 833.958C848.574 834.926 848.031 836.239 848.031 837.607V837.607Z" stroke="#1C538E"/>
<path d="M855.25 897.471L851.125 901.6L855.25 897.471Z" stroke="#1C538E"/>
<path d="M859.375 955.271L847 967.657L859.375 955.271Z" stroke="#1C538E"/>
<path d="M848.031 1023.39C848.031 1024.76 848.574 1026.07 849.541 1027.04C850.508 1028.01 851.82 1028.55 853.188 1028.55C854.555 1028.55 855.867 1028.01 856.834 1027.04C857.801 1026.07 858.344 1024.76 858.344 1023.39C858.344 1022.02 857.801 1020.71 856.834 1019.74C855.867 1018.78 854.555 1018.23 853.188 1018.23C851.82 1018.23 850.508 1018.78 849.541 1019.74C848.574 1020.71 848.031 1022.02 848.031 1023.39V1023.39Z" stroke="#1C538E"/>
<path d="M909.906 527.964C909.906 529.333 910.449 530.646 911.416 531.613C912.383 532.581 913.695 533.125 915.062 533.125C916.43 533.125 917.742 532.581 918.709 531.613C919.676 530.646 920.219 529.333 920.219 527.964C920.219 526.595 919.676 525.283 918.709 524.315C917.742 523.347 916.43 522.803 915.062 522.803C913.695 522.803 912.383 523.347 911.416 524.315C910.449 525.283 909.906 526.595 909.906 527.964V527.964Z" stroke="#1C538E"/>
<path d="M921.25 583.7L908.875 596.086L921.25 583.7Z" stroke="#1C538E"/>
<path d="M917.125 649.757L913 653.886L917.125 649.757Z" stroke="#1C538E"/>
<path d="M911.969 713.75C911.969 714.571 912.295 715.359 912.875 715.939C913.455 716.52 914.242 716.846 915.062 716.846C915.883 716.846 916.67 716.52 917.25 715.939C917.83 715.359 918.156 714.571 918.156 713.75C918.156 712.929 917.83 712.141 917.25 711.56C916.67 710.98 915.883 710.654 915.062 710.654C914.242 710.654 913.455 710.98 912.875 711.56C912.295 712.141 911.969 712.929 911.969 713.75V713.75Z" stroke="#1C538E"/>
<path d="M921.25 769.486L908.875 781.872L921.25 769.486Z" stroke="#1C538E"/>
<path d="M921.25 831.414L908.875 843.8L921.25 831.414Z" stroke="#1C538E"/>
<path d="M917.125 897.471L913 901.6L917.125 897.471Z" stroke="#1C538E"/>
<path d="M917.125 959.4L913 963.528L917.125 959.4Z" stroke="#1C538E"/>
<path d="M921.25 1017.2L908.875 1029.59L921.25 1017.2Z" stroke="#1C538E"/>
<path d="M979 525.9L974.875 530.028L979 525.9Z" stroke="#1C538E"/>
<path d="M971.781 589.893C971.781 591.262 972.324 592.574 973.291 593.542C974.258 594.51 975.57 595.054 976.938 595.054C978.305 595.054 979.617 594.51 980.584 593.542C981.551 592.574 982.094 591.262 982.094 589.893C982.094 588.524 981.551 587.212 980.584 586.244C979.617 585.276 978.305 584.732 976.938 584.732C975.57 584.732 974.258 585.276 973.291 586.244C972.324 587.212 971.781 588.524 971.781 589.893V589.893Z" stroke="#1C538E"/>
<path d="M979 649.757L974.875 653.886L979 649.757Z" stroke="#1C538E"/>
<path d="M983.125 707.557L970.75 719.943L983.125 707.557Z" stroke="#1C538E"/>
<path d="M1007.88 744.714L946 806.643L1007.88 744.714Z" stroke="#1C538E" stroke-width="3"/>
<path d="M973.844 837.607C973.844 838.428 974.17 839.216 974.75 839.797C975.33 840.377 976.117 840.704 976.938 840.704C977.758 840.704 978.545 840.377 979.125 839.797C979.705 839.216 980.031 838.428 980.031 837.607C980.031 836.786 979.705 835.998 979.125 835.418C978.545 834.837 977.758 834.511 976.938 834.511C976.117 834.511 975.33 834.837 974.75 835.418C974.17 835.998 973.844 836.786 973.844 837.607V837.607Z" stroke="#1C538E"/>
<path d="M983.125 893.343L970.75 905.728L983.125 893.343Z" stroke="#1C538E"/>
<path d="M975.906 961.464C975.906 961.738 976.015 962.001 976.208 962.194C976.402 962.388 976.664 962.496 976.938 962.496C977.211 962.496 977.473 962.388 977.667 962.194C977.86 962.001 977.969 961.738 977.969 961.464C977.969 961.191 977.86 960.928 977.667 960.734C977.473 960.541 977.211 960.432 976.938 960.432C976.664 960.432 976.402 960.541 976.208 960.734C976.015 960.928 975.906 961.191 975.906 961.464V961.464Z" stroke="#1C538E"/>
<path d="M1007.88 992.429L946 1054.36L1007.88 992.429Z" stroke="#1C538E" stroke-width="3"/>
<path d="M1045 521.771L1032.62 534.157L1045 521.771Z" stroke="#1C538E"/>
<path d="M1033.66 589.893C1033.66 591.262 1034.2 592.574 1035.17 593.542C1036.13 594.51 1037.44 595.054 1038.81 595.054C1040.18 595.054 1041.49 594.51 1042.46 593.542C1043.43 592.574 1043.97 591.262 1043.97 589.893C1043.97 588.524 1043.43 587.212 1042.46 586.244C1041.49 585.276 1040.18 584.732 1038.81 584.732C1037.44 584.732 1036.13 585.276 1035.17 586.244C1034.2 587.212 1033.66 588.524 1033.66 589.893V589.893Z" stroke="#1C538E"/>
<path d="M1033.66 651.821C1033.66 653.19 1034.2 654.503 1035.17 655.471C1036.13 656.438 1037.44 656.982 1038.81 656.982C1040.18 656.982 1041.49 656.438 1042.46 655.471C1043.43 654.503 1043.97 653.19 1043.97 651.821C1043.97 650.453 1043.43 649.14 1042.46 648.172C1041.49 647.204 1040.18 646.661 1038.81 646.661C1037.44 646.661 1036.13 647.204 1035.17 648.172C1034.2 649.14 1033.66 650.453 1033.66 651.821V651.821Z" stroke="#1C538E"/>
<path d="M1033.66 713.75C1033.66 715.119 1034.2 716.431 1035.17 717.399C1036.13 718.367 1037.44 718.911 1038.81 718.911C1040.18 718.911 1041.49 718.367 1042.46 717.399C1043.43 716.431 1043.97 715.119 1043.97 713.75C1043.97 712.381 1043.43 711.069 1042.46 710.101C1041.49 709.133 1040.18 708.589 1038.81 708.589C1037.44 708.589 1036.13 709.133 1035.17 710.101C1034.2 711.069 1033.66 712.381 1033.66 713.75V713.75Z" stroke="#1C538E"/>
<path d="M1045 769.486L1032.62 781.872L1045 769.486Z" stroke="#1C538E"/>
<path d="M1045 831.414L1032.62 843.8L1045 831.414Z" stroke="#1C538E"/>
<path d="M1033.66 899.536C1033.66 900.904 1034.2 902.217 1035.17 903.185C1036.13 904.153 1037.44 904.696 1038.81 904.696C1040.18 904.696 1041.49 904.153 1042.46 903.185C1043.43 902.217 1043.97 900.904 1043.97 899.536C1043.97 898.167 1043.43 896.854 1042.46 895.887C1041.49 894.919 1040.18 894.375 1038.81 894.375C1037.44 894.375 1036.13 894.919 1035.17 895.887C1034.2 896.854 1033.66 898.167 1033.66 899.536V899.536Z" stroke="#1C538E"/>
<path d="M1033.66 961.464C1033.66 962.833 1034.2 964.146 1035.17 965.113C1036.13 966.081 1037.44 966.625 1038.81 966.625C1040.18 966.625 1041.49 966.081 1042.46 965.113C1043.43 964.146 1043.97 962.833 1043.97 961.464C1043.97 960.095 1043.43 958.783 1042.46 957.815C1041.49 956.847 1040.18 956.303 1038.81 956.303C1037.44 956.303 1036.13 956.847 1035.17 957.815C1034.2 958.783 1033.66 960.095 1033.66 961.464V961.464Z" stroke="#1C538E"/>
<path d="M1040.88 1021.33L1036.75 1025.46L1040.88 1021.33Z" stroke="#1C538E"/>
<path d="M1131.62 497L1069.75 558.929L1131.62 497Z" stroke="#1C538E" stroke-width="3"/>
<path d="M1102.75 587.829L1098.62 591.957L1102.75 587.829Z" stroke="#1C538E"/>
<path d="M1095.53 651.821C1095.53 653.19 1096.07 654.503 1097.04 655.471C1098.01 656.438 1099.32 656.982 1100.69 656.982C1102.06 656.982 1103.37 656.438 1104.33 655.471C1105.3 654.503 1105.84 653.19 1105.84 651.821C1105.84 650.453 1105.3 649.14 1104.33 648.172C1103.37 647.204 1102.06 646.661 1100.69 646.661C1099.32 646.661 1098.01 647.204 1097.04 648.172C1096.07 649.14 1095.53 650.453 1095.53 651.821V651.821Z" stroke="#1C538E"/>
<path d="M1106.88 707.557L1094.5 719.943L1106.88 707.557Z" stroke="#1C538E"/>
<path d="M1095.53 775.679C1095.53 777.047 1096.07 778.36 1097.04 779.328C1098.01 780.296 1099.32 780.839 1100.69 780.839C1102.06 780.839 1103.37 780.296 1104.33 779.328C1105.3 778.36 1105.84 777.047 1105.84 775.679C1105.84 774.31 1105.3 772.997 1104.33 772.029C1103.37 771.062 1102.06 770.518 1100.69 770.518C1099.32 770.518 1098.01 771.062 1097.04 772.029C1096.07 772.997 1095.53 774.31 1095.53 775.679V775.679Z" stroke="#1C538E"/>
<path d="M1095.53 837.607C1095.53 838.976 1096.07 840.289 1097.04 841.256C1098.01 842.224 1099.32 842.768 1100.69 842.768C1102.06 842.768 1103.37 842.224 1104.33 841.256C1105.3 840.289 1105.84 838.976 1105.84 837.607C1105.84 836.239 1105.3 834.926 1104.33 833.958C1103.37 832.99 1102.06 832.447 1100.69 832.447C1099.32 832.447 1098.01 832.99 1097.04 833.958C1096.07 834.926 1095.53 836.239 1095.53 837.607V837.607Z" stroke="#1C538E"/>
<path d="M1106.88 893.343L1094.5 905.728L1106.88 893.343Z" stroke="#1C538E"/>
<path d="M1097.59 961.464C1097.59 962.286 1097.92 963.073 1098.5 963.654C1099.08 964.235 1099.87 964.561 1100.69 964.561C1101.51 964.561 1102.29 964.235 1102.88 963.654C1103.46 963.073 1103.78 962.286 1103.78 961.464C1103.78 960.643 1103.46 959.856 1102.88 959.275C1102.29 958.694 1101.51 958.368 1100.69 958.368C1099.87 958.368 1099.08 958.694 1098.5 959.275C1097.92 959.856 1097.59 960.643 1097.59 961.464V961.464Z" stroke="#1C538E"/>
<path d="M1097.59 1023.39C1097.59 1024.21 1097.92 1025 1098.5 1025.58C1099.08 1026.16 1099.87 1026.49 1100.69 1026.49C1101.51 1026.49 1102.29 1026.16 1102.88 1025.58C1103.46 1025 1103.78 1024.21 1103.78 1023.39C1103.78 1022.57 1103.46 1021.78 1102.88 1021.2C1102.29 1020.62 1101.51 1020.3 1100.69 1020.3C1099.87 1020.3 1099.08 1020.62 1098.5 1021.2C1097.92 1021.78 1097.59 1022.57 1097.59 1023.39V1023.39Z" stroke="#1C538E"/>
<path d="M1168.75 521.771L1156.38 534.157L1168.75 521.771Z" stroke="#1C538E"/>
<path d="M1157.41 589.893C1157.41 591.262 1157.95 592.574 1158.92 593.542C1159.88 594.51 1161.19 595.054 1162.56 595.054C1163.93 595.054 1165.24 594.51 1166.21 593.542C1167.18 592.574 1167.72 591.262 1167.72 589.893C1167.72 588.524 1167.18 587.212 1166.21 586.244C1165.24 585.276 1163.93 584.732 1162.56 584.732C1161.19 584.732 1159.88 585.276 1158.92 586.244C1157.95 587.212 1157.41 588.524 1157.41 589.893V589.893Z" stroke="#1C538E"/>
<path d="M1168.75 645.629L1156.38 658.014L1168.75 645.629Z" stroke="#1C538E"/>
<path d="M1164.62 711.686L1160.5 715.814L1164.62 711.686Z" stroke="#1C538E"/>
<path d="M1168.75 769.486L1156.38 781.872L1168.75 769.486Z" stroke="#1C538E"/>
<path d="M1164.62 835.543L1160.5 839.672L1164.62 835.543Z" stroke="#1C538E"/>
<path d="M1168.75 893.343L1156.38 905.728L1168.75 893.343Z" stroke="#1C538E"/>
<path d="M1168.75 955.271L1156.38 967.657L1168.75 955.271Z" stroke="#1C538E"/>
<path d="M1164.62 1021.33L1160.5 1025.46L1164.62 1021.33Z" stroke="#1C538E"/>
<path d="M1219.28 527.964C1219.28 529.333 1219.82 530.646 1220.79 531.613C1221.76 532.581 1223.07 533.125 1224.44 533.125C1225.81 533.125 1227.12 532.581 1228.08 531.613C1229.05 530.646 1229.59 529.333 1229.59 527.964C1229.59 526.595 1229.05 525.283 1228.08 524.315C1227.12 523.347 1225.81 522.803 1224.44 522.803C1223.07 522.803 1221.76 523.347 1220.79 524.315C1219.82 525.283 1219.28 526.595 1219.28 527.964V527.964Z" stroke="#1C538E"/>
<path d="M1226.5 587.829L1222.38 591.957L1226.5 587.829Z" stroke="#1C538E"/>
<path d="M1219.28 651.821C1219.28 653.19 1219.82 654.503 1220.79 655.471C1221.76 656.438 1223.07 656.982 1224.44 656.982C1225.81 656.982 1227.12 656.438 1228.08 655.471C1229.05 654.503 1229.59 653.19 1229.59 651.821C1229.59 650.453 1229.05 649.14 1228.08 648.172C1227.12 647.204 1225.81 646.661 1224.44 646.661C1223.07 646.661 1221.76 647.204 1220.79 648.172C1219.82 649.14 1219.28 650.453 1219.28 651.821V651.821Z" stroke="#1C538E"/>
<path d="M1226.5 711.686L1222.38 715.814L1226.5 711.686Z" stroke="#1C538E"/>
<path d="M1230.62 769.486L1218.25 781.872L1230.62 769.486Z" stroke="#1C538E"/>
<path d="M1219.28 837.607C1219.28 838.976 1219.82 840.289 1220.79 841.256C1221.76 842.224 1223.07 842.768 1224.44 842.768C1225.81 842.768 1227.12 842.224 1228.08 841.256C1229.05 840.289 1229.59 838.976 1229.59 837.607C1229.59 836.239 1229.05 834.926 1228.08 833.958C1227.12 832.99 1225.81 832.447 1224.44 832.447C1223.07 832.447 1221.76 832.99 1220.79 833.958C1219.82 834.926 1219.28 836.239 1219.28 837.607V837.607Z" stroke="#1C538E"/>
<path d="M1219.28 899.536C1219.28 900.904 1219.82 902.217 1220.79 903.185C1221.76 904.153 1223.07 904.696 1224.44 904.696C1225.81 904.696 1227.12 904.153 1228.08 903.185C1229.05 902.217 1229.59 900.904 1229.59 899.536C1229.59 898.167 1229.05 896.854 1228.08 895.887C1227.12 894.919 1225.81 894.375 1224.44 894.375C1223.07 894.375 1221.76 894.919 1220.79 895.887C1219.82 896.854 1219.28 898.167 1219.28 899.536V899.536Z" stroke="#1C538E"/>
<path d="M1221.34 961.464C1221.34 962.286 1221.67 963.073 1222.25 963.654C1222.83 964.235 1223.62 964.561 1224.44 964.561C1225.26 964.561 1226.04 964.235 1226.63 963.654C1227.21 963.073 1227.53 962.286 1227.53 961.464C1227.53 960.643 1227.21 959.856 1226.63 959.275C1226.04 958.694 1225.26 958.368 1224.44 958.368C1223.62 958.368 1222.83 958.694 1222.25 959.275C1221.67 959.856 1221.34 960.643 1221.34 961.464V961.464Z" stroke="#1C538E"/>
<path d="M1230.62 1017.2L1218.25 1029.59L1230.62 1017.2Z" stroke="#1C538E"/>
<path d="M1281.16 527.964C1281.16 529.333 1281.7 530.646 1282.67 531.613C1283.63 532.581 1284.94 533.125 1286.31 533.125C1287.68 533.125 1288.99 532.581 1289.96 531.613C1290.93 530.646 1291.47 529.333 1291.47 527.964C1291.47 526.595 1290.93 525.283 1289.96 524.315C1288.99 523.347 1287.68 522.803 1286.31 522.803C1284.94 522.803 1283.63 523.347 1282.67 524.315C1281.7 525.283 1281.16 526.595 1281.16 527.964V527.964Z" stroke="#1C538E"/>
<path d="M1292.5 583.7L1280.12 596.086L1292.5 583.7Z" stroke="#1C538E"/>
<path d="M1317.25 620.857L1255.38 682.786L1317.25 620.857Z" stroke="#1C538E" stroke-width="3"/>
<path d="M1292.5 707.557L1280.12 719.943L1292.5 707.557Z" stroke="#1C538E"/>
<path d="M1281.16 775.679C1281.16 777.047 1281.7 778.36 1282.67 779.328C1283.63 780.296 1284.94 780.839 1286.31 780.839C1287.68 780.839 1288.99 780.296 1289.96 779.328C1290.93 778.36 1291.47 777.047 1291.47 775.679C1291.47 774.31 1290.93 772.997 1289.96 772.029C1288.99 771.062 1287.68 770.518 1286.31 770.518C1284.94 770.518 1283.63 771.062 1282.67 772.029C1281.7 772.997 1281.16 774.31 1281.16 775.679V775.679Z" stroke="#1C538E"/>
<path d="M1292.5 831.414L1280.12 843.8L1292.5 831.414Z" stroke="#1C538E"/>
<path d="M1288.38 897.471L1284.25 901.6L1288.38 897.471Z" stroke="#1C538E"/>
<path d="M1281.16 961.464C1281.16 962.833 1281.7 964.146 1282.67 965.113C1283.63 966.081 1284.94 966.625 1286.31 966.625C1287.68 966.625 1288.99 966.081 1289.96 965.113C1290.93 964.146 1291.47 962.833 1291.47 961.464C1291.47 960.095 1290.93 958.783 1289.96 957.815C1288.99 956.847 1287.68 956.303 1286.31 956.303C1284.94 956.303 1283.63 956.847 1282.67 957.815C1281.7 958.783 1281.16 960.095 1281.16 961.464V961.464Z" stroke="#1C538E"/>
<path d="M1292.5 1017.2L1280.12 1029.59L1292.5 1017.2Z" stroke="#1C538E"/>
<path d="M1354.38 521.771L1342 534.157L1354.38 521.771Z" stroke="#1C538E"/>
<path d="M1343.03 589.893C1343.03 591.262 1343.57 592.574 1344.54 593.542C1345.51 594.51 1346.82 595.054 1348.19 595.054C1349.56 595.054 1350.87 594.51 1351.83 593.542C1352.8 592.574 1353.34 591.262 1353.34 589.893C1353.34 588.524 1352.8 587.212 1351.83 586.244C1350.87 585.276 1349.56 584.732 1348.19 584.732C1346.82 584.732 1345.51 585.276 1344.54 586.244C1343.57 587.212 1343.03 588.524 1343.03 589.893V589.893Z" stroke="#1C538E"/>
<path d="M1343.03 651.821C1343.03 653.19 1343.57 654.503 1344.54 655.471C1345.51 656.438 1346.82 656.982 1348.19 656.982C1349.56 656.982 1350.87 656.438 1351.83 655.471C1352.8 654.503 1353.34 653.19 1353.34 651.821C1353.34 650.453 1352.8 649.14 1351.83 648.172C1350.87 647.204 1349.56 646.661 1348.19 646.661C1346.82 646.661 1345.51 647.204 1344.54 648.172C1343.57 649.14 1343.03 650.453 1343.03 651.821V651.821Z" stroke="#1C538E"/>
<path d="M1345.09 713.75C1345.09 714.571 1345.42 715.359 1346 715.939C1346.58 716.52 1347.37 716.846 1348.19 716.846C1349.01 716.846 1349.79 716.52 1350.38 715.939C1350.96 715.359 1351.28 714.571 1351.28 713.75C1351.28 712.929 1350.96 712.141 1350.38 711.56C1349.79 710.98 1349.01 710.654 1348.19 710.654C1347.37 710.654 1346.58 710.98 1346 711.56C1345.42 712.141 1345.09 712.929 1345.09 713.75V713.75Z" stroke="#1C538E"/>
<path d="M1347.16 775.679C1347.16 775.952 1347.26 776.215 1347.46 776.408C1347.65 776.602 1347.91 776.711 1348.19 776.711C1348.46 776.711 1348.72 776.602 1348.92 776.408C1349.11 776.215 1349.22 775.952 1349.22 775.679C1349.22 775.405 1349.11 775.142 1348.92 774.949C1348.72 774.755 1348.46 774.646 1348.19 774.646C1347.91 774.646 1347.65 774.755 1347.46 774.949C1347.26 775.142 1347.16 775.405 1347.16 775.679V775.679Z" stroke="#1C538E"/>
<path d="M1354.38 831.414L1342 843.8L1354.38 831.414Z" stroke="#1C538E"/>
<path d="M1354.38 893.343L1342 905.728L1354.38 893.343Z" stroke="#1C538E"/>
<path d="M1347.16 961.464C1347.16 961.738 1347.26 962.001 1347.46 962.194C1347.65 962.388 1347.91 962.496 1348.19 962.496C1348.46 962.496 1348.72 962.388 1348.92 962.194C1349.11 962.001 1349.22 961.738 1349.22 961.464C1349.22 961.191 1349.11 960.928 1348.92 960.734C1348.72 960.541 1348.46 960.432 1348.19 960.432C1347.91 960.432 1347.65 960.541 1347.46 960.734C1347.26 960.928 1347.16 961.191 1347.16 961.464V961.464Z" stroke="#1C538E"/>
<path d="M1347.16 1023.39C1347.16 1023.67 1347.26 1023.93 1347.46 1024.12C1347.65 1024.32 1347.91 1024.43 1348.19 1024.43C1348.46 1024.43 1348.72 1024.32 1348.92 1024.12C1349.11 1023.93 1349.22 1023.67 1349.22 1023.39C1349.22 1023.12 1349.11 1022.86 1348.92 1022.66C1348.72 1022.47 1348.46 1022.36 1348.19 1022.36C1347.91 1022.36 1347.65 1022.47 1347.46 1022.66C1347.26 1022.86 1347.16 1023.12 1347.16 1023.39V1023.39Z" stroke="#1C538E"/>
<path d="M1404.91 527.964C1404.91 529.333 1405.45 530.646 1406.42 531.613C1407.38 532.581 1408.69 533.125 1410.06 533.125C1411.43 533.125 1412.74 532.581 1413.71 531.613C1414.68 530.646 1415.22 529.333 1415.22 527.964C1415.22 526.595 1414.68 525.283 1413.71 524.315C1412.74 523.347 1411.43 522.803 1410.06 522.803C1408.69 522.803 1407.38 523.347 1406.42 524.315C1405.45 525.283 1404.91 526.595 1404.91 527.964V527.964Z" stroke="#1C538E"/>
<path d="M1412.12 587.829L1408 591.957L1412.12 587.829Z" stroke="#1C538E"/>
<path d="M1412.12 649.757L1408 653.886L1412.12 649.757Z" stroke="#1C538E"/>
<path d="M1409.03 713.75C1409.03 714.024 1409.14 714.286 1409.33 714.48C1409.53 714.673 1409.79 714.782 1410.06 714.782C1410.34 714.782 1410.6 714.673 1410.79 714.48C1410.99 714.286 1411.09 714.024 1411.09 713.75C1411.09 713.476 1410.99 713.214 1410.79 713.02C1410.6 712.827 1410.34 712.718 1410.06 712.718C1409.79 712.718 1409.53 712.827 1409.33 713.02C1409.14 713.214 1409.03 713.476 1409.03 713.75V713.75Z" stroke="#1C538E"/>
<path d="M1412.12 773.614L1408 777.743L1412.12 773.614Z" stroke="#1C538E"/>
<path d="M1406.97 837.607C1406.97 838.428 1407.29 839.216 1407.87 839.797C1408.46 840.377 1409.24 840.704 1410.06 840.704C1410.88 840.704 1411.67 840.377 1412.25 839.797C1412.83 839.216 1413.16 838.428 1413.16 837.607C1413.16 836.786 1412.83 835.998 1412.25 835.418C1411.67 834.837 1410.88 834.511 1410.06 834.511C1409.24 834.511 1408.46 834.837 1407.87 835.418C1407.29 835.998 1406.97 836.786 1406.97 837.607V837.607Z" stroke="#1C538E"/>
<path d="M1412.12 897.471L1408 901.6L1412.12 897.471Z" stroke="#1C538E"/>
<path d="M1416.25 955.271L1403.88 967.657L1416.25 955.271Z" stroke="#1C538E"/>
<path d="M1404.91 1023.39C1404.91 1024.76 1405.45 1026.07 1406.42 1027.04C1407.38 1028.01 1408.69 1028.55 1410.06 1028.55C1411.43 1028.55 1412.74 1028.01 1413.71 1027.04C1414.68 1026.07 1415.22 1024.76 1415.22 1023.39C1415.22 1022.02 1414.68 1020.71 1413.71 1019.74C1412.74 1018.78 1411.43 1018.23 1410.06 1018.23C1408.69 1018.23 1407.38 1018.78 1406.42 1019.74C1405.45 1020.71 1404.91 1022.02 1404.91 1023.39V1023.39Z" stroke="#1C538E"/>
</g>
</g>
<defs>
<clipPath id="clip0_274_1341">
<rect width="1485" height="578" fill="white" transform="translate(-44)"/>
</clipPath>
<clipPath id="clip1_274_1341">
<rect width="1485" height="578" fill="white" transform="translate(-44 497)"/>
</clipPath>
</defs>
</svg>
